<svg id="visual" viewBox="0 0 900 600" width="900" height="600" xmlns="http://www.w3.org/2000/svg" xmlns:xlink="http://www.w3.org/1999/xlink" version="1.1"><g stroke-width="1" stroke-linejoin="bevel"><path d="M404 312L439 368L510 334Z" fill="#4b0b0a" stroke="#4b0b0a"></path><path d="M439 368L480 412L510 334Z" fill="#780d0e" stroke="#780d0e"></path><path d="M404 312L312 375L439 368Z" fill="#6c0d0e" stroke="#6c0d0e"></path><path d="M439 368L403 484L480 412Z" fill="#830e0d" stroke="#830e0d"></path><path d="M524 184L384 195L404 312Z" fill="#9a110a" stroke="#9a110a"></path><path d="M404 312L384 195L335 298Z" fill="#8e0f0c" stroke="#8e0f0c"></path><path d="M510 334L524 184L404 312Z" fill="#830e0d" stroke="#830e0d"></path><path d="M480 412L595 377L510 334Z" fill="#4b0b0a" stroke="#4b0b0a"></path><path d="M510 334L603 280L524 184Z" fill="#6c0d0e" stroke="#6c0d0e"></path><path d="M595 377L603 280L510 334Z" fill="#780d0e" stroke="#780d0e"></path><path d="M335 298L312 375L404 312Z" fill="#2c0700" stroke="#2c0700"></path><path d="M312 375L403 484L439 368Z" fill="#8e0f0c" stroke="#8e0f0c"></path><path d="M480 412L585 466L595 377Z" fill="#830e0d" stroke="#830e0d"></path><path d="M608 194L514 136L524 184Z" fill="#6c0d0e" stroke="#6c0d0e"></path><path d="M524 184L514 136L384 195Z" fill="#8e0f0c" stroke="#8e0f0c"></path><path d="M603 280L608 194L524 184Z" fill="#400a07" stroke="#400a07"></path><path d="M538 529L585 466L480 412Z" fill="#610c0d" stroke="#610c0d"></path><path d="M384 195L288 203L335 298Z" fill="#9a110a" stroke="#9a110a"></path><path d="M335 298L236 290L312 375Z" fill="#6c0d0e" stroke="#6c0d0e"></path><path d="M397 105L288 203L384 195Z" fill="#400a07" stroke="#400a07"></path><path d="M514 136L397 105L384 195Z" fill="#6c0d0e" stroke="#6c0d0e"></path><path d="M288 203L236 290L335 298Z" fill="#4b0b0a" stroke="#4b0b0a"></path><path d="M312 375L313 504L403 484Z" fill="#360904" stroke="#360904"></path><path d="M403 484L538 529L480 412Z" fill="#610c0d" stroke="#610c0d"></path><path d="M595 377L682 267L603 280Z" fill="#2c0700" stroke="#2c0700"></path><path d="M603 280L682 267L608 194Z" fill="#780d0e" stroke="#780d0e"></path><path d="M698 407L682 267L595 377Z" fill="#780d0e" stroke="#780d0e"></path><path d="M199 368L313 504L312 375Z" fill="#560b0c" stroke="#560b0c"></path><path d="M403 484L476 600L538 529Z" fill="#400a07" stroke="#400a07"></path><path d="M705 501L698 407L585 466Z" fill="#8e0f0c" stroke="#8e0f0c"></path><path d="M585 466L698 407L595 377Z" fill="#360904" stroke="#360904"></path><path d="M236 290L199 368L312 375Z" fill="#2c0700" stroke="#2c0700"></path><path d="M288 203L209 204L236 290Z" fill="#9a110a" stroke="#9a110a"></path><path d="M236 290L139 311L199 368Z" fill="#2c0700" stroke="#2c0700"></path><path d="M263 79L209 204L288 203Z" fill="#400a07" stroke="#400a07"></path><path d="M608 194L575 66L514 136Z" fill="#6c0d0e" stroke="#6c0d0e"></path><path d="M514 136L475 0L397 105Z" fill="#4b0b0a" stroke="#4b0b0a"></path><path d="M669 76L575 66L608 194Z" fill="#830e0d" stroke="#830e0d"></path><path d="M439 600L476 600L403 484Z" fill="#8e0f0c" stroke="#8e0f0c"></path><path d="M667 600L705 501L585 466Z" fill="#610c0d" stroke="#610c0d"></path><path d="M334 600L439 600L403 484Z" fill="#360904" stroke="#360904"></path><path d="M594 600L585 466L538 529Z" fill="#780d0e" stroke="#780d0e"></path><path d="M290 0L263 79L397 105Z" fill="#8e0f0c" stroke="#8e0f0c"></path><path d="M397 105L263 79L288 203Z" fill="#610c0d" stroke="#610c0d"></path><path d="M237 539L334 600L313 504Z" fill="#830e0d" stroke="#830e0d"></path><path d="M313 504L334 600L403 484Z" fill="#780d0e" stroke="#780d0e"></path><path d="M813 189L738 176L682 267Z" fill="#360904" stroke="#360904"></path><path d="M682 267L738 176L608 194Z" fill="#2c0700" stroke="#2c0700"></path><path d="M765 397L682 267L698 407Z" fill="#360904" stroke="#360904"></path><path d="M199 368L237 539L313 504Z" fill="#830e0d" stroke="#830e0d"></path><path d="M476 600L594 600L538 529Z" fill="#360904" stroke="#360904"></path><path d="M705 501L765 397L698 407Z" fill="#610c0d" stroke="#610c0d"></path><path d="M575 66L475 0L514 136Z" fill="#830e0d" stroke="#830e0d"></path><path d="M136 211L139 311L209 204Z" fill="#830e0d" stroke="#830e0d"></path><path d="M209 204L139 311L236 290Z" fill="#560b0c" stroke="#560b0c"></path><path d="M199 368L113 505L237 539Z" fill="#360904" stroke="#360904"></path><path d="M738 176L669 76L608 194Z" fill="#4b0b0a" stroke="#4b0b0a"></path><path d="M575 66L604 0L475 0Z" fill="#9a110a" stroke="#9a110a"></path><path d="M475 0L398 0L397 105Z" fill="#4b0b0a" stroke="#4b0b0a"></path><path d="M169 92L136 211L209 204Z" fill="#560b0c" stroke="#560b0c"></path><path d="M669 76L604 0L575 66Z" fill="#560b0c" stroke="#560b0c"></path><path d="M594 600L667 600L585 466Z" fill="#360904" stroke="#360904"></path><path d="M811 465L831 331L765 397Z" fill="#610c0d" stroke="#610c0d"></path><path d="M0 276L112 386L139 311Z" fill="#610c0d" stroke="#610c0d"></path><path d="M139 311L112 386L199 368Z" fill="#400a07" stroke="#400a07"></path><path d="M398 0L290 0L397 105Z" fill="#6c0d0e" stroke="#6c0d0e"></path><path d="M263 79L169 92L209 204Z" fill="#400a07" stroke="#400a07"></path><path d="M239 0L169 92L263 79Z" fill="#560b0c" stroke="#560b0c"></path><path d="M811 465L765 397L705 501Z" fill="#9a110a" stroke="#9a110a"></path><path d="M765 397L831 331L682 267Z" fill="#610c0d" stroke="#610c0d"></path><path d="M831 0L688 0L669 76Z" fill="#9a110a" stroke="#9a110a"></path><path d="M669 76L688 0L604 0Z" fill="#830e0d" stroke="#830e0d"></path><path d="M831 331L813 189L682 267Z" fill="#610c0d" stroke="#610c0d"></path><path d="M817 600L811 465L705 501Z" fill="#4b0b0a" stroke="#4b0b0a"></path><path d="M290 0L239 0L263 79Z" fill="#830e0d" stroke="#830e0d"></path><path d="M113 505L191 600L237 539Z" fill="#830e0d" stroke="#830e0d"></path><path d="M237 539L191 600L334 600Z" fill="#9a110a" stroke="#9a110a"></path><path d="M819 132L669 76L738 176Z" fill="#400a07" stroke="#400a07"></path><path d="M112 386L113 505L199 368Z" fill="#9a110a" stroke="#9a110a"></path><path d="M900 232L819 132L813 189Z" fill="#360904" stroke="#360904"></path><path d="M813 189L819 132L738 176Z" fill="#2c0700" stroke="#2c0700"></path><path d="M73 0L91 112L169 92Z" fill="#360904" stroke="#360904"></path><path d="M169 92L91 112L136 211Z" fill="#8e0f0c" stroke="#8e0f0c"></path><path d="M136 211L0 276L139 311Z" fill="#360904" stroke="#360904"></path><path d="M112 386L0 389L113 505Z" fill="#560b0c" stroke="#560b0c"></path><path d="M900 376L900 331L831 331Z" fill="#8e0f0c" stroke="#8e0f0c"></path><path d="M831 331L900 232L813 189Z" fill="#8e0f0c" stroke="#8e0f0c"></path><path d="M811 465L900 376L831 331Z" fill="#780d0e" stroke="#780d0e"></path><path d="M900 331L900 232L831 331Z" fill="#9a110a" stroke="#9a110a"></path><path d="M667 600L817 600L705 501Z" fill="#8e0f0c" stroke="#8e0f0c"></path><path d="M811 465L900 468L900 376Z" fill="#6c0d0e" stroke="#6c0d0e"></path><path d="M0 199L0 276L136 211Z" fill="#2c0700" stroke="#2c0700"></path><path d="M0 514L91 600L113 505Z" fill="#780d0e" stroke="#780d0e"></path><path d="M113 505L91 600L191 600Z" fill="#8e0f0c" stroke="#8e0f0c"></path><path d="M0 276L0 389L112 386Z" fill="#560b0c" stroke="#560b0c"></path><path d="M817 600L900 468L811 465Z" fill="#360904" stroke="#360904"></path><path d="M91 112L0 199L136 211Z" fill="#560b0c" stroke="#560b0c"></path><path d="M900 82L831 0L819 132Z" fill="#830e0d" stroke="#830e0d"></path><path d="M819 132L831 0L669 76Z" fill="#2c0700" stroke="#2c0700"></path><path d="M0 389L0 514L113 505Z" fill="#6c0d0e" stroke="#6c0d0e"></path><path d="M239 0L73 0L169 92Z" fill="#560b0c" stroke="#560b0c"></path><path d="M91 112L0 96L0 199Z" fill="#610c0d" stroke="#610c0d"></path><path d="M900 232L900 82L819 132Z" fill="#610c0d" stroke="#610c0d"></path><path d="M73 0L0 96L91 112Z" fill="#2c0700" stroke="#2c0700"></path><path d="M817 600L900 600L900 468Z" fill="#6c0d0e" stroke="#6c0d0e"></path><path d="M0 514L0 600L91 600Z" fill="#560b0c" stroke="#560b0c"></path><path d="M900 82L900 0L831 0Z" fill="#2c0700" stroke="#2c0700"></path><path d="M73 0L0 0L0 96Z" fill="#560b0c" stroke="#560b0c"></path></g></svg>