<svg version="1.2" xmlns="http://www.w3.org/2000/svg" viewBox="0 0 4680 3120" width="4680" height="3120">
	<title>Untitled</title>
	<defs>
		<clipPath clipPathUnits="userSpaceOnUse" id="cp1">
			<path d="m1879.56 1078.62c0 22.97-6.32 45.63-18.48 65.44l-198.94 323.83c0 0-266.3 62.82-299.65 24.73-25.15-28.76-24.8-198.18-16.99-255.87 2.54-18.82 4.57-30.9 4.57-30.9l-2.4-202.51 158.48-62.45 39.03-15.39q1.23 2.91 2.72 5.69 1.48 2.79 3.21 5.43 1.74 2.64 3.7 5.11 1.96 2.48 4.13 4.77c10.87 11.51 25.7 19.46 42.67 21.56l11.41 1.39c36.25 4.49 69.47-19.35 77.48-54.18l17.86 1.8 20.83 2.1c74.53 7.54 135.08 63.52 148.4 137.26q0.49 2.75 0.86 5.51 0.37 2.76 0.62 5.54 0.25 2.78 0.37 5.56 0.12 2.79 0.12 5.58z"/>
		</clipPath>
		<clipPath clipPathUnits="userSpaceOnUse" id="cp2">
			<path d="m1581.13 1250.51l-0.82 12.8-2.79 43.23q-0.11 1.84-0.57 3.63-0.47 1.78-1.28 3.44-0.81 1.65-1.92 3.12-1.12 1.47-2.5 2.68c-4.6 4.11-11.1 5.91-17.59 4.11l-225.38-62.85-52.23-14.6c-39.28-10.97-58.85-55.02-40.61-91.53l66.25-132.47c30.61-61.24 91.24-101.83 159.52-106.82l39.36-2.87 40.12-2.69c0.99 5.88 2.55 11.3 4.87 16.68 3.51 8.35 5.53 16.27 11.75 22.82l-159.12 178.1c-8.35 9.33-5.68 24.03 5.41 29.86z"/>
		</clipPath>
		<clipPath clipPathUnits="userSpaceOnUse" id="cp3">
			<path d="m3438.68 1297.35l-97.51 19.79q-12.1 2.46-23.73 6.56-11.64 4.11-22.59 9.79-10.96 5.68-21.02 12.82-10.06 7.14-19.04 15.61l-34.65 32.68c-4.03 3.8-8.53 7.13-13.55 9.47q-4.59 2.14-9.5 3.37-4.91 1.22-9.97 1.47-5.05 0.26-10.06-0.46-5.01-0.71-9.79-2.38c-25.61-8.91-53.35 6.04-60 32.32l-9.44 37.29-254.09-374.14c9.21-13.99 19.52-27.24 30.81-39.62 11.3-12.37 23.55-23.84 36.65-34.29 13.1-10.46 27-19.86 41.57-28.13 14.58-8.27 29.78-15.38 45.47-21.26l58.16-22.45 16.87-6.53 9.24-3.55q-0.82 0.94-1.7 1.82-0.88 0.89-1.82 1.71-0.95 0.81-1.94 1.56-1 0.75-2.05 1.43c1.9 3.16 4.15 6.5 6.84 9.78 16.23 20.04 47.19 38.44 100.06 3.73 0 0 0.66-0.49 1.75-1.43 3.14-2.79 9.93-9.49 15.34-19.99q0.73-1.4 1.39-2.83 0.67-1.43 1.27-2.89 0.59-1.46 1.12-2.94 0.53-1.49 0.99-3l13.36 17.94 3.44 4.59 6.62 8.9 26.29 35.3 129.5 208.31h0.02z"/>
		</clipPath>
		<clipPath clipPathUnits="userSpaceOnUse" id="cp4">
			<path d="m3092.95 1492.62h-1470.84c-14.73 0-26.68-11.94-26.68-26.68v-357.3c0-14.73 11.95-26.68 26.68-26.68h1470.84c14.74 0 26.68 11.95 26.68 26.68v357.3c0 14.73-11.94 26.68-26.68 26.68z"/>
		</clipPath>
	</defs>
	<style>
		.s0 { opacity: .5;fill: #fcb713 } 
		.s1 { fill: #f6f7f7 } 
		.s2 { opacity: .3;fill: #fcb713 } 
		.s3 { fill: #fcb713 } 
		.s4 { fill: #6457a4 } 
		.s5 { fill: #ffffff } 
		.s6 { opacity: .1;fill: #6457a4 } 
		.s7 { opacity: .5;fill: #6457a4 } 
		.s8 { opacity: .4;fill: #6457a4 } 
		.s9 { opacity: .3;fill: #6457a4 } 
		.s10 { opacity: .7;fill: #6457a4 } 
		.s11 { fill: #1a3075 } 
		.s12 { opacity: .3;fill: #000000 } 
		.s13 { fill: #35479c } 
		.s14 { opacity: .2;fill: #000000 } 
		.s15 { fill: #f28389 } 
		.s16 { opacity: .3;fill: #f37c20 } 
		.s17 { fill: #f37c20 } 
		.s18 { fill: #f16b6c } 
		.s19 { fill: #231f20 } 
		.s20 { fill: #312f7f } 
		.s21 { fill: #000000 } 
		.s22 { opacity: .1;fill: #000000 } 
		.s23 { opacity: .2;fill: #ffffff } 
		.s24 { fill: #f99115 } 
		.s25 { fill: none } 
		.s26 { fill: #17255b } 
	</style>
	<path class="s0" d="m3525.9 2126.4c-18.7-37.9 36-125.7 53.1-153.8 79.9-131 217.1-206.8 326.8-309.1 42.6-39.7 78.2-94.7 94.4-150.8 19.2-66.8-15-137.3-81.9-158.7-108-34.5-201.5 25.5-261.4 113.6-99.4 146.2-136.6 339.7-145.3 513.2-2.2 44.5-6.3 103.8 14.3 145.6z"/>
	<path class="s1" d="m3947.6 1405.9c-14.1 10.1-27.8 20.7-41.3 31.5q-5.1 4.1-10.1 8.2-5.1 4.1-10.1 8.2-5 4.1-10 8.3-4.9 4.2-9.9 8.4c-26.3 22.5-52 45.8-76.8 69.9-49.7 48.3-96.5 99.6-138.1 154.9-20.9 27.7-40.5 56.2-58.3 85.9-8.9 14.8-17.3 30-25.3 45.3l-2.9 5.8-1.5 2.9-1.4 2.9-5.7 11.7c-3.6 7.9-7.3 15.7-10.7 23.7-1.7 3.9-3.4 7.9-5 11.9-1.5 4.1-3.2 8.1-4.7 12.1l-4.5 12.2c-0.8 2-1.5 4.1-2.2 6.1l-2 6.2c-5.4 16.4-10.3 33-14.1 49.9-1.1 4.2-1.8 8.5-2.7 12.7l-1.3 6.4c-0.5 2.1-0.8 4.2-1.2 6.3-0.7 4.3-1.5 8.6-2.1 12.9l-1.7 12.8q-0.8 6.5-1.4 12.9-0.6 6.5-1 13-0.4 6.5-0.6 13-0.2 6.5-0.3 12.9 0-6.4 0.2-12.9 0.1-6.5 0.5-13 0.3-6.5 0.9-13 0.5-6.5 1.2-12.9l1.6-12.9c0.6-4.3 1.3-8.6 2-12.9 0.4-2.1 0.6-4.3 1.1-6.4l1.2-6.4c0.9-4.2 1.6-8.5 2.7-12.7l2.9-12.7 3.4-12.5 0.8-3.2 0.9-3.1 1.9-6.2 1.8-6.3 2.1-6.1 2-6.2c0.7-2.1 1.4-4.1 2.1-6.2l4.5-12.2c1.5-4.1 3.1-8.1 4.7-12.1 1.5-4.1 3.2-8 4.9-12 3.3-8.1 7-15.9 10.6-23.8l5.6-11.7 1.4-3 1.5-2.9 3-5.8c7.9-15.4 16.3-30.6 25.3-45.4 17.7-29.8 37.4-58.5 58.2-86.2q3.9-5.2 7.9-10.3 4-5.1 8-10.2 4.1-5.1 8.1-10.2 4.1-5 8.3-10.1c11-13.3 22.4-26.4 34-39.3q4.3-4.8 8.7-9.6 4.4-4.8 8.8-9.6 4.5-4.7 9-9.4 4.4-4.8 9-9.4 4.5-4.7 9-9.3 4.6-4.6 9.2-9.2 4.6-4.6 9.3-9.2 4.6-4.5 9.3-9 9.4-9 18.9-17.9 9.5-8.8 19.2-17.5 9.7-8.7 19.5-17.2 9.8-8.6 19.7-16.9 5-4.2 10-8.3 5-4.2 10.1-8.3 5-4.1 10.1-8.1 5.1-4.1 10.2-8.1c13.6-10.6 27.4-21.1 41.6-31.1z"/>
	<path class="s2" d="m1192.3 2170c-32.1-86.4-107.5-147.4-185.7-192-107.8-61.6-239.5-104.2-323.1-202.6-51.9-61.1-79.3-150.9-61.5-227.5 5.8-24.7 16.3-48.1 32.2-68.7q0.3-0.4 0.7-0.9 0.4-0.5 0.8-1 0.3-0.4 0.7-0.9 0.4-0.5 0.8-0.9c47.6-58 129.1-78.3 201.5-65 46.3 8.5 89.4 28.7 129.3 54.7 23.9 15.6 46.7 33.3 68.3 51.9 64.5 55.2 122.5 120.4 160.2 197.8 72.7 149.7 33.1 307.1-24.2 455.1z"/>
	<path class="s0" d="m1205.7 1788.3c16.8-34.1-32.5-113.2-47.9-138.5-71.9-118-195.5-186.2-294.3-278.3-38.3-35.8-70.4-85.3-85-135.8-17.3-60.2 13.5-123.7 73.8-143 97.2-31.1 181.4 23 235.4 102.3 89.5 131.7 123 305.9 130.8 462.2 2 40 5.7 93.5-12.8 131.1z"/>
	<path class="s1" d="m815.8 1112.3c51.7 41.3 100.7 85.9 147.7 132.5 23.4 23.3 46.2 47.3 68.4 71.9q4.2 4.6 8.3 9.2 4.1 4.7 8.2 9.3 4.1 4.7 8.1 9.4 4.1 4.7 8.1 9.4c10.7 12.7 21.2 25.4 31.5 38.4 20.5 25.9 40.2 52.6 58.6 80.1 9.2 13.7 18.2 27.7 26.7 41.8q3.2 5.4 6.3 10.7 3.2 5.4 6.2 10.8 3.1 5.4 6.1 10.8 3 5.5 5.9 10.9 2.8 5.5 5.6 11.1 2.8 5.5 5.6 11.1 2.7 5.6 5.3 11.2 2.6 5.6 5.2 11.3l4.9 11.4 4.7 11.5c1.6 3.8 3.1 7.7 4.5 11.5l2.2 5.8c0.8 2 1.4 3.9 2.1 5.9l2 5.8c0.7 2 1.4 4 2 5.9l3.7 11.9 3.4 11.9 0.9 3 0.7 3 1.6 6c3.9 16.1 7.1 32.3 9.2 48.7-2.3-16.3-5.6-32.6-9.7-48.6l-1.6-6-0.8-3-0.8-2.9-3.6-11.9-3.8-11.8c-0.6-2-1.3-3.9-2-5.9l-2.1-5.8c-5.7-15.5-11.8-30.9-18.7-45.9q-2.5-5.6-5.2-11.2-2.7-5.6-5.4-11.2-2.7-5.5-5.6-11-2.8-5.6-5.7-11c-31.2-58.3-68.9-112.9-110-164.7-41-51.8-85.5-100.8-132.1-147.7-23.3-23.4-47.2-46.3-71.6-68.6q-4.6-4.2-9.2-8.4-4.6-4.1-9.2-8.3-4.6-4.1-9.3-8.2-4.6-4.1-9.3-8.2c-12.5-10.8-25.1-21.5-38-31.9z"/>
	<path class="s3" d="m709.4 1453.1c51.7 41.3 100.7 85.9 147.6 132.5 23.5 23.3 46.3 47.3 68.5 71.9q4.1 4.6 8.2 9.2 4.2 4.6 8.3 9.3 4 4.7 8.1 9.4 4 4.7 8 9.4c10.7 12.6 21.3 25.4 31.6 38.4 20.5 25.9 40.1 52.6 58.6 80.1 9.2 13.7 18.1 27.7 26.7 41.8q3.2 5.3 6.3 10.7 3.1 5.4 6.2 10.8 3.1 5.4 6 10.8 3 5.4 5.9 10.9 2.9 5.5 5.7 11.1 2.8 5.5 5.5 11.1 2.7 5.6 5.4 11.2 2.6 5.6 5.1 11.3l5 11.4 4.7 11.4c1.6 3.9 3 7.7 4.5 11.6l2.2 5.8c0.7 2 1.4 3.9 2.1 5.9l2 5.8c0.7 2 1.4 3.9 2 5.9l3.7 11.8 3.4 12 0.8 3 0.8 3 1.5 6c4 16 7.1 32.3 9.3 48.7-2.3-16.4-5.6-32.6-9.7-48.6l-1.6-6-0.8-3-0.9-3-3.5-11.8-3.9-11.8c-0.6-2-1.3-3.9-2-5.9l-2.1-5.8c-5.6-15.5-11.8-30.9-18.6-45.9q-2.6-5.6-5.2-11.2-2.7-5.6-5.4-11.2-2.8-5.6-5.6-11.1-2.8-5.5-5.7-10.9c-31.2-58.3-68.9-112.9-110-164.7-41-51.8-85.5-100.9-132.2-147.7-23.3-23.5-47.2-46.3-71.6-68.6q-4.5-4.2-9.1-8.4-4.6-4.1-9.2-8.3-4.7-4.1-9.3-8.2-4.7-4.1-9.3-8.2c-12.5-10.8-25.1-21.5-38-31.9z"/>
	<g style="opacity: .5">
		<path class="s4" d="m3535.6 378.4h-2360.2c-13.1 0-23.8 12.6-23.8 28.1v1764.3c0 15.5 10.7 28.1 23.8 28.1h2360.2c13.2 0 23.9-12.6 23.9-28.1v-1764.3c0-15.5-10.7-28.1-23.9-28.1zm-5.6 1766.5h-2355.6v-1667.7h2355.6z"/>
		<path class="s4" d="m1174.4 477.2h2355.6v1667.7h-2355.6z"/>
	</g>
	<path class="s5" d="m1174.4 477.2h2355.6v1667.7h-2355.6z"/>
	<path class="s6" d="m3100.6 576.7h-1572.2c-5.8 0-10.5-4.7-10.5-10.5v-35.2c0-5.8 4.7-10.5 10.5-10.5h1572.2c5.8 0 10.5 4.7 10.5 10.5v35.2c0 5.8-4.7 10.5-10.5 10.5zm257.3 0h-186c-5.8 0-10.5-4.7-10.5-10.5v-35.2c0-5.8 4.7-10.5 10.5-10.5h186c5.8 0 10.5 4.7 10.5 10.5v35.2c0 5.8-4.7 10.5-10.5 10.5z"/>
	<path fill-rule="evenodd" class="s7" d="m3447.4 524.8c8.6 6.6 10.9 18.3 5.7 27.5l24.1 17.4c3.6 2.6-1.3 9-4.8 6.3l-23.2-18.6c-7.5 7.1-19.2 8-27.7 1.5-9.4-7.1-11.2-20.6-4.1-30 7.1-9.4 20.6-11.2 30-4.1zm-3.5 4.7c-6.9-5.2-16.6-3.9-21.8 3-5.2 6.8-3.9 16.6 2.9 21.8 6.9 5.2 16.6 3.8 21.8-3 5.2-6.9 3.9-16.6-2.9-21.8z"/>
	<path class="s5" d="m3513.2 430.1c0.9 1 0.9 2.6 0 3.6q-0.2 0.2-0.4 0.3-0.2 0.1-0.5 0.2-0.2 0.1-0.5 0.2-0.2 0-0.5 0-0.2 0-0.4 0-0.3-0.1-0.5-0.2-0.3-0.1-0.5-0.2-0.2-0.1-0.4-0.3l-9.4-9.4-9.4 9.4q-0.2 0.2-0.4 0.3-0.2 0.1-0.4 0.2-0.3 0.1-0.5 0.2-0.3 0-0.5 0-0.3 0-0.5 0-0.3-0.1-0.5-0.2-0.2-0.1-0.4-0.2-0.3-0.1-0.4-0.3-0.4-0.4-0.6-0.8-0.2-0.5-0.2-1 0-0.5 0.2-1 0.2-0.5 0.6-0.8l9.4-9.5-9.4-9.4q-0.4-0.3-0.6-0.8-0.2-0.5-0.2-1 0-0.5 0.2-1 0.2-0.4 0.6-0.8 0.3-0.4 0.8-0.6 0.5-0.2 1-0.2 0.5 0 1 0.2 0.4 0.2 0.8 0.6l9.4 9.4 9.4-9.4q0.4-0.4 0.9-0.6 0.4-0.2 0.9-0.2 0.6 0 1 0.2 0.5 0.2 0.9 0.6c0.9 1 0.9 2.6 0 3.6l-9.5 9.4zm-70.6 1h-5.5q-0.3 0-0.6-0.1-0.3-0.1-0.5-0.4-0.2-0.2-0.3-0.5-0.1-0.3-0.1-0.6v-22.6q0-0.3 0.1-0.6 0.1-0.3 0.3-0.5 0.2-0.2 0.5-0.3 0.3-0.1 0.6-0.1h22.6c0.9 0 1.6 0.7 1.6 1.5v5q0 0.3-0.1 0.6-0.1 0.3-0.4 0.5-0.2 0.2-0.5 0.3-0.3 0.2-0.6 0.2h-15.6v16q0 0.3-0.1 0.6-0.1 0.3-0.3 0.5-0.3 0.3-0.6 0.4-0.2 0.1-0.5 0.1zm-3.9-3.1h2.3v-16.1q0-0.3 0.1-0.6 0.1-0.3 0.3-0.5 0.3-0.2 0.5-0.4 0.3-0.1 0.7-0.1h15.6v-1.8h-19.5z"/>
	<path class="s5" d="m3465.1 436h-22.6q-0.3 0-0.6-0.1-0.3-0.1-0.5-0.4-0.3-0.2-0.4-0.5-0.1-0.3-0.1-0.6v-4.9c0-0.5 0.2-0.8 0.5-1.1 0.3-0.3 0.7-0.5 1.1-0.5 0.4 0 0.8 0.2 1.1 0.5 0.3 0.3 0.4 0.6 0.4 1.1v3.4h19.5v-19.5h-3.8c-0.4 0-0.8-0.2-1.1-0.5-0.3-0.3-0.5-0.7-0.5-1.1 0-0.4 0.2-0.8 0.5-1.1 0.3-0.3 0.7-0.4 1.1-0.4h5.4q0.3 0 0.6 0.1 0.3 0.1 0.5 0.3 0.2 0.2 0.3 0.5 0.2 0.3 0.2 0.6v22.6q0 0.3-0.2 0.6-0.1 0.3-0.3 0.5-0.2 0.3-0.5 0.4-0.3 0.1-0.6 0.1zm-55.1-13.3h-24.1c-0.5 0-1.1-0.2-1.4-0.6-0.4-0.4-0.7-0.9-0.7-1.5 0-0.5 0.3-1 0.7-1.4 0.3-0.4 0.9-0.7 1.4-0.7h24.1c0.6 0 1.1 0.3 1.5 0.7 0.4 0.4 0.6 0.9 0.6 1.4 0 0.6-0.2 1.1-0.6 1.5-0.4 0.4-0.9 0.6-1.5 0.6z"/>
	<path class="s6" d="m1441 552.5c0 17.7-14.3 32.1-32 32.1-17.7 0-32.1-14.4-32.1-32.1 0-17.7 14.4-32 32.1-32 17.7 0 32 14.3 32 32zm-121 0c0 17.7-14.3 32.1-32 32.1-17.7 0-32.1-14.4-32.1-32.1 0-17.7 14.4-32 32.1-32 17.7 0 32 14.3 32 32z"/>
	<path class="s8" d="m2867.2 982.6h-981.4v-108.2h981.4zm-976.8-4.6h972.2v-99.1h-972.2z"/>
	<path class="s1" d="m2582.5 876.7l-40.7 103.6h-653.7v-103.6z"/>
	<path class="s9" d="m2582.5 876.7l-40.7 103.6h-653.7v-103.6z"/>
	<path class="s6" d="m1908.2 1405.2h379.6v643.8h-379.6z"/>
	<path class="s6" d="m2357.5 1806h379.7v235.7h-379.7z"/>
	<g style="opacity: .4">
		<path class="s10" d="m2314.5 1367.8l-386.5 673.9m-37.2-673.9l397 681.2"/>
	</g>
	<g style="opacity: .2">
		<path class="s6" d="m2357.5 1390.2h548.4v339.3h-548.4z"/>
		<path class="s8" d="m2357.5 1744.5l548.4-339.3m0 339.3l-548.4-355"/>
	</g>
	<g style="opacity: .4">
		<path class="s10" d="m2737.2 2041.7l-379.7-235.7m379.7 0l-379.7 235.7"/>
	</g>
	<path class="s11" d="m1770.8 697.4c1.4-15.2-4.8-30.4-14.2-42.5-5.1-6.6-11.3-12.6-19.1-15.4-7.8-2.9-17.4-2-23.3 3.8-1.5-19.9-13.2-38.9-30.4-49.1-17.2-10.2-39.4-11.5-57.7-3.3-12.6 5.7-17.6 20.1-32 21.7-7.7 0.8-15.5-1.6-22-5.9-13.9-9.3-26.9-24.3-45-24.1-8.3 0.1-16.1 3.7-23 8.3-18.4 12.3-31.1 32.3-35.7 53.9-1 4.6-1.6 9.5-1.9 14.6-1.5 29.4 9.4 63.6 32.4 81 15.6 11.8 39.4 15.4 54.2 2.6 1.5-1.2 3-3 2.4-4.9q0-0.1-0.1-0.3c16.2-1.3 31.5 10.9 40.8 24.7 3 4.4 5.7 9.1 8.1 13.8 8.1 16 13.3 33.6 20 50.3 6.8 16.9 19.7 50 40.9 45q2.8-0.6 5.7-2.2 1.6-0.8 3.1-1.7 0 0 0.1 0c5.8-4.6 9.5-11.5 14.1-17.3 7.8-9.6 18.4-16.5 29-22.7q0.5-0.2 0.9-0.5c2.7-2.1 5.5-4.1 8.5-5.8 3.9-2.4 8.1-4.4 12.2-6.6q0 0 0 0c3.2-1.7 6.3-3.5 9.1-5.7 3.9-3.1 7.1-6.8 9.6-11.1 7-11.7 8.4-26.9 3.2-39.5q-0.4-0.9-0.8-1.9-0.8-1.6-1.8-3.2c-4.5-7.4-11.2-13.6-13.6-21.8 14.7-4.1 24.9-18.9 26.3-34.2zm-52.3 62.3c-6.2-3.1-9.1-10.3-10-17.2-0.9-6.8-0.2-13.8-1.6-20.6-0.4-2.1-1.2-4.3-3-5.4-1.7-1.1-3.9-0.9-5.9-0.8-11.1 0.7-22.2-1.6-32.1-6.6-20.6-10.3-34.5-31.4-55.7-40.3-20.5-8.7-46-3.6-61.6 12.2-5.1 5.1-9.2 11.2-14.2 16.4 0.6-1.6 1.3-3.1 1.9-4.2 7.2-13 17.1-24.7 28.5-34.2 21.9-18.3 50.3-29.2 78.9-27.4 9.7 0.6 19.2 2.6 28.1 6.4 6.7 3 13 7.1 18.7 11.7 31.2 25 47.2 67.5 40.4 106.8-0.3 1.5-0.6 2.9-1 4.2-3.9 0.8-7.7 0.8-11.4-1z"/>
	<path class="s12" d="m1767 776.6c-1.1 7.9-4.6 15.1-9.5 21.4-2.7 3.6-5.8 6.8-9.2 9.7q-0.4 0.4-0.9 0.8c-2.7 2.3-5.6 4.4-8.6 6.3q0 0 0 0c-6.7 4.5-13.7 8.4-20.7 12.4q-0.4 0.3-0.9 0.5c-10.6 6.2-21.2 13.1-29 22.7-4.6 5.8-8.3 12.7-14.1 17.3q-0.1 0-0.1 0-0.2 0.2-0.5 0.4c-2.3 1.7-5.3 3-8.3 3.5-4.7 0.8-9.5-0.2-12.4-3.9-2.2-2.6-2.9-6.1-3.2-9.5-1-10.7 0.7-20.4 7.3-28.8 2.4-3.1 5.2-5.9 8.4-8-7.5-11.8-14.6-24.1-25.3-32.7-10.1-8.1-22.8-12.1-35.7-12.4-2.4-4.7-5.1-9.4-8.1-13.8-9.3-13.8-24.6-26-40.8-24.7q0.1 0.2 0.1 0.3c0.6 1.9-0.9 3.7-2.4 4.9-14.8 12.8-38.6 9.2-54.2-2.6-23-17.4-33.9-51.6-32.4-81 10.1 7.3 18.7 25 24.3 31.9 6 7.5 13.2 15.3 22.8 15.9 2.2 0.2 4.3-0.1 6.4-0.6 5.1-1.4 9.8-4.7 13.7-8.5 0.2-0.2 13.8 7.6 14 7.3-4.6 11-10.8 22.6 3.9 7.7 15-15.3 14.2-18.3 35.4-21.5 11.8-1.8 24.4-5.5 31.4-15.2 3.9 16.4 14.6 31.1 29 39.9 13.8 8.4 31 11.3 46.8 7.9q0.9-0.2 1.8-0.4c-1.5 8.2-3 16.5-2 24.8 1.1 8.3 5.2 16.6 12.5 20.6 7.3 4 17.9 2.3 22-4.9 0.6-1.2 1.1-2.3 1.4-3.6 0.3-1 15.1-4.5 16.8-4.7 4.4-0.5 10.2 0 14 2.5q0.1 0.1 0.2 0.1c5.5 3.8 6.9 11.4 6.1 18z"/>
	<path class="s12" d="m1732.2 754.7l-3.8 14.3c-3.3 12.5-12.5 22.8-24.5 27.6l-4.5 1.7c-4 13.7-11.4 25.8-21.1 35.5l-135.5-39c-0.4 1.4-2.4 1.7-3.6 1-1.2-0.8-1.9-2.1-2.4-3.5q-0.9-2-1.6-4.1-0.5-2.9-0.7-5.9-0.3-3-0.4-6.1-0.1-3 0.1-6 0.1-3 0.5-6l3.8-31.7 3.1-25.8q0.5-4.1 1.4-8.1 0.8-3.9 2.1-7.8 1.2-3.9 2.8-7.6 1.7-3.7 3.6-7.3c16.2-29.2 48.9-47.2 84-43 29.3 3.6 53.3 21.6 65.5 46.2 5.4 10.7 8.5 22.7 8.8 35.2q0.1 0.6 0.1 1.1v1.3c0 3.4-0.2 6.8-0.6 10.2l-1.4 11.8-0.3 1.7 10.5-1.5c9-1.4 16.5 7 14.1 15.8z"/>
	<path class="s3" d="m1268.3 2424l-25.2 123.7 66.5 5.2 76.2-161.2zm568.5-5.5l66.9 134.5 60.7-52.5-63.9-187.3z"/>
	<path class="s13" d="m1671 1429.8l-13.7 48.3-0.8 3-20.7 72.8-87.1 307.2-40.1 141.1-17.8 62.8-80.7 284.4-21.1 74.6h-136.4l6.9-58.8 92.6-784.4 17.8-151z"/>
	<path class="s14" d="m1657.3 1478.1l-0.8 3-20.7 72.8-87.1 307.2-40.1 141.1-38.6-550.2z"/>
	<path class="s13" d="m1928 2387.9l-125.2 54.1-30.4-66.5-158-345.3q-5.7-12.4-10.5-25.2-4.8-12.8-8.8-25.9-3.9-13.1-6.8-26.4-3-13.3-5.1-26.9l-9.8-64.7-48.2-317-9.3-61.1 56.3-17.1h0.1l119.3-36.1 22.4-6.8 82.9-25.1-1 40.5-2.2 99.7-7.6 335.2q-0.2 7.8 0.2 15.7 0.5 7.8 1.5 15.6 1 7.8 2.7 15.5 1.6 7.6 3.8 15.2l119.9 406z"/>
	<path class="s15" d="m1732.2 754.7l-0.4 1.9-2.1 7.7-1.3 4.7q-0.4 1.4-0.9 2.8-0.4 1.4-1 2.8-0.6 1.4-1.3 2.7-0.7 1.3-1.5 2.6-1.7 2.8-3.9 5.3-2.1 2.5-4.7 4.7-2.5 2.1-5.3 3.8-2.9 1.7-5.9 2.9l-4.5 1.7c-4 13.7-11.4 25.8-21.1 35.5q-2.4 2.4-4.9 4.7-2.6 2.2-5.4 4.2-2.7 1.9-5.6 3.7-2.9 1.8-6 3.3-2.8 1.5-5.8 2.7-2.9 1.2-6 2.2-3 1-6.1 1.7-3.2 0.8-6.3 1.3c-7.7 1.2-15.6 1.4-23.8 0.5-1.2-0.2-2.5-0.3-3.7-0.5q-1.6-0.3-3.3-0.7-2.4-0.5-4.8-1.1-2.3-0.6-4.7-1.4-2.3-0.8-4.6-1.7-2.2-0.9-4.4-1.9-0.1 0-0.1-0.1-2.9-1.3-5.7-2.9c-22.1-12.4-37.7-34.3-41.9-59.6q-0.5-2.9-0.7-5.9-0.3-3-0.4-6.1-0.1-3 0.1-6 0.1-3 0.5-6l3.8-31.7 1.2-9.7 0.5-4.4 1.4-11.7q0.4-2.8 0.9-5.5 0.6-3.3 1.5-6.6 0.8-3.2 2-6.4 1.1-3.2 2.5-6.3 1.4-3 3-6 1.5-2.7 3.2-5.3c17.1-26 47.9-41.6 80.8-37.7 29.3 3.6 53.3 21.6 65.5 46.2 5.4 10.7 8.5 22.7 8.8 35.2q0.1 0.6 0.1 1.1v1.3c0 3.4-0.2 6.8-0.6 10.2l-1.4 11.8-0.3 1.7 10.5-1.5c9-1.4 16.5 7 14.1 15.8z"/>
	<path class="s14" d="m1583.9 1550l-8.8-16.8-74.6 10.9-45.5 11.3-102.9 25.4 17.8-151h297l22.4-6.8 81.9 15.4-2.2 99.7-135 34.1c-19.8 5.1-40.5-4.1-50.1-22.2z"/>
	<path class="s15" d="m1714.5 970c0 0-67.6 46.3-110.1 36.3-58.5-13.8-94.6-86-68.1-94.3q0.5-0.1 1.1-0.3 0.6-0.2 1.1-0.4 0.6-0.2 1.1-0.4 0.5-0.2 1.1-0.5c5.5-2.3 10.5-5.6 14.8-9.5 12.6-11.4 20.5-28.2 25.4-43.4 0.7-2.3 1.4-4.5 2-6.7q2.2 1 4.4 1.9 2.3 0.9 4.6 1.7 2.4 0.8 4.7 1.4 2.4 0.6 4.8 1.1 1.7 0.4 3.3 0.7 0.5 0 0.9 0.1 0.5 0.1 1 0.1 0.4 0.1 0.9 0.2 0.5 0 0.9 0.1c8.2 0.9 16.1 0.7 23.8-0.5q3.2-0.5 6.3-1.3 3.1-0.7 6.1-1.7 3.1-1 6-2.2 3-1.3 5.8-2.7c2.8 12.2 6 23 9.7 32.2 3.9 9.6 8.3 17.6 13.4 23.6 3.4 4.2 7 7.4 11 9.8 37.1 22 33.6 20.6 24 54.7z"/>
	<path class="s3" d="m1879.6 1078.6c0 23-6.4 45.6-18.5 65.5l-199 323.8c0 0-266.3 62.8-299.6 24.7-25.2-28.7-24.8-198.2-17-255.8 2.5-18.9 4.6-31 4.6-31l-2.4-202.5 158.5-62.4 39-15.4q1.2 2.9 2.7 5.7 1.5 2.8 3.2 5.4 1.7 2.7 3.7 5.1 2 2.5 4.1 4.8c10.9 11.5 25.7 19.5 42.7 21.6l11.4 1.3c36.3 4.5 69.5-19.3 77.5-54.1l17.9 1.8 20.8 2.1c74.5 7.5 135.1 63.5 148.4 137.2q0.5 2.8 0.9 5.5 0.3 2.8 0.6 5.6 0.2 2.8 0.3 5.5 0.2 2.8 0.2 5.6z"/>
	<g id="Clip-Path" clip-path="url(#cp1)">
		<g>
			<path class="s1" d="m1427.8 1130.9c-9 0-18.2-2.7-26.8-8.2-8.9-5.7-17-13.9-24.8-25.1-12.6-18.3-19.2-36.7-19.5-54.6-0.3-21.4 10.3-48.2 34.2-56.6 19.1-6.6 40.6 1.1 65.9 23.7q1 1 1.7 2.3 0.6 1.3 0.7 2.7 0.1 1.4-0.4 2.8-0.5 1.4-1.5 2.4-0.9 1.1-2.2 1.8-1.3 0.6-2.8 0.7-1.4 0-2.8-0.4-1.3-0.5-2.4-1.5c-21-18.7-37.8-25.5-51.4-20.8-16.4 5.7-24.7 25.8-24.5 42.7 0.3 14.8 6.1 30.9 17 46.5 6.6 9.6 13.4 16.5 20.6 21.1 12.1 7.8 25 8 35.2 0.8 11.6-8.2 16.8-23.5 13.2-39-2.9-12.2-18-27.6-30.1-30.5-5.5-1.3-7.3 0.8-7.8 1.5q-1 1.1-2.3 1.8-1.2 0.6-2.7 0.7-1.4 0.2-2.8-0.3-1.4-0.4-2.5-1.3-1.1-1-1.7-2.2-0.7-1.3-0.8-2.8-0.2-1.4 0.3-2.8 0.4-1.3 1.3-2.5c5.3-6.2 13.2-8.4 22.4-6.2 17.6 4.2 36.7 23.5 40.8 41.3 4.9 21.3-2.5 42.5-18.9 54.1-7.4 5.3-15.9 7.9-24.6 7.9zm-36.1 151.3c-4.6 0-9.3-1.4-13.7-4.3-4.6-2.8-8.7-7-12.7-12.8-6.5-9.4-9.8-18.8-10-27.9-0.1-11 5.3-24.8 17.5-29 9.8-3.4 20.8 0.5 33.7 12.1 0.8 0.7 1.2 1.6 1.2 2.6 0.1 0.9-0.2 1.9-0.9 2.6-0.7 0.7-1.6 1.2-2.5 1.3-1 0-2-0.3-2.7-1-10.7-9.5-19.4-13-26.3-10.6-8.4 2.9-12.7 13.2-12.6 21.8 0.2 7.6 3.2 15.8 8.7 23.9 3.4 4.9 6.9 8.4 10.6 10.8 6.2 3.9 12.8 4.1 18 0.4 6-4.2 8.6-12.1 6.8-20-1.5-6.2-9.3-14.1-15.4-15.6-2.9-0.7-3.8 0.4-4.1 0.7q-0.4 0.6-1.1 1-0.6 0.3-1.4 0.4-0.7 0-1.4-0.2-0.7-0.2-1.3-0.7-0.6-0.5-0.9-1.1-0.3-0.7-0.4-1.4-0.1-0.8 0.2-1.5 0.2-0.7 0.6-1.2c2.7-3.2 6.8-4.4 11.5-3.2 9 2.1 18.8 12 20.9 21.1 2.5 10.9-1.3 21.8-9.7 27.7-3.8 2.7-8.1 4.1-12.6 4.1zm308.3 25.9c-7.5 0-15.2-2.3-22.4-6.9-7.5-4.7-14.2-11.6-20.8-21-10.6-15.4-16.1-30.8-16.3-45.8-0.3-18 8.6-40.5 28.6-47.4 16-5.6 34.1 0.9 55.3 19.8 1.1 1.1 1.8 2.6 1.9 4.2 0.1 1.6-0.5 3.1-1.5 4.3-1.1 1.2-2.6 2-4.2 2.1-1.6 0.1-3.1-0.5-4.4-1.5-17.5-15.7-31.6-21.4-43.1-17.4-13.7 4.7-20.7 21.6-20.5 35.7 0.2 12.4 5.1 25.9 14.2 39 5.6 8.1 11.3 13.9 17.3 17.7 10.2 6.5 21 6.7 29.6 0.7 9.7-6.9 14-19.7 11-32.7-2.4-10.3-15.1-23.1-25.2-25.6-4.6-1.1-6.1 0.7-6.6 1.2q-0.8 1-1.8 1.5-1.1 0.6-2.3 0.7-1.2 0.1-2.4-0.3-1.1-0.3-2.1-1.1-0.9-0.8-1.4-1.9-0.6-1-0.7-2.2-0.1-1.2 0.2-2.4 0.4-1.2 1.2-2.1c4.4-5.2 11-7.1 18.7-5.2 14.8 3.5 30.8 19.7 34.3 34.6 4.1 17.9-2.1 35.7-15.9 45.4-6.2 4.4-13.3 6.6-20.7 6.6zm-212.1 236.9c-9.4 0-19.1-2.9-28.2-8.7-9.4-6-17.9-14.6-26.1-26.5-13.4-19.3-20.3-38.6-20.6-57.5-0.3-22.6 10.8-50.9 36-59.7 20.2-7 42.9 1.2 69.5 25 1.5 1.4 2.4 3.2 2.4 5.2 0.1 2-0.6 4-1.9 5.5-1.3 1.5-3.2 2.4-5.2 2.5-2 0.2-4-0.5-5.5-1.8-22.1-19.8-39.8-26.9-54.2-21.9-17.3 6-26 27.2-25.8 45 0.3 15.5 6.4 32.5 17.9 49 7 10.1 14.1 17.4 21.7 22.3 12.8 8.1 26.4 8.4 37.2 0.8 12.2-8.7 17.6-24.8 13.8-41.1-3-12.9-19-29.1-31.7-32.2-5.8-1.4-7.6 0.8-8.2 1.6q-1 1.1-2.4 1.8-1.3 0.7-2.8 0.9-1.6 0.1-3-0.4-1.5-0.4-2.6-1.4-1.2-1-1.9-2.3-0.7-1.4-0.8-2.9-0.2-1.5 0.3-3 0.5-1.4 1.4-2.6c5.5-6.5 13.9-8.9 23.6-6.5 18.6 4.4 38.7 24.8 43 43.5 5.2 22.4-2.6 44.8-19.9 57-7.8 5.6-16.8 8.4-26 8.4zm255.5-119.1c-4.6 0-9.3-1.4-13.7-4.3-4.6-2.9-8.7-7-12.7-12.8-6.5-9.4-9.8-18.8-10-27.9-0.1-11 5.3-24.8 17.5-29 9.8-3.4 20.8 0.5 33.8 12.1 0.7 0.7 1.1 1.6 1.1 2.6 0.1 0.9-0.2 1.9-0.9 2.6-0.6 0.7-1.6 1.2-2.5 1.2-1 0.1-2-0.2-2.7-0.9-10.7-9.6-19.3-13-26.3-10.6-8.4 2.9-12.7 13.2-12.5 21.8 0.1 7.6 3.1 15.8 8.6 23.9 3.4 4.9 6.9 8.4 10.6 10.8 6.2 3.9 12.8 4.1 18 0.4 6-4.2 8.6-12.1 6.8-20-1.5-6.2-9.3-14.1-15.4-15.6-2.9-0.7-3.8 0.4-4.1 0.7q-0.4 0.6-1.1 0.9-0.6 0.4-1.4 0.5-0.7 0-1.4-0.2-0.7-0.2-1.3-0.7-0.6-0.5-0.9-1.1-0.3-0.7-0.4-1.4-0.1-0.8 0.2-1.5 0.2-0.7 0.7-1.2c2.6-3.2 6.7-4.4 11.4-3.2 9 2.1 18.8 12 20.9 21.1 2.5 10.9-1.3 21.8-9.7 27.7-3.8 2.7-8.1 4.1-12.6 4.1zm126.6-309.4c-4.6 0-9.3-1.4-13.8-4.3-4.5-2.8-8.6-7-12.6-12.8-6.5-9.4-9.9-18.8-10-27.9-0.2-11 5.2-24.8 17.5-29 9.8-3.4 20.8 0.5 33.7 12.1 0.8 0.7 1.2 1.6 1.3 2.6 0 1-0.3 1.9-1 2.7-0.6 0.7-1.6 1.1-2.5 1.2-1 0-2-0.3-2.7-1-10.8-9.5-19.4-13-26.4-10.6-8.3 2.9-12.6 13.2-12.5 21.8 0.1 7.6 3.1 15.8 8.7 23.9 3.4 4.9 6.9 8.4 10.5 10.8 6.3 3.9 12.8 4.1 18.1 0.4 5.9-4.2 8.6-12.1 6.7-20-1.4-6.2-9.2-14.1-15.4-15.6-2.8-0.7-3.7 0.4-4 0.7q-0.5 0.6-1.1 1-0.7 0.3-1.4 0.4-0.7 0-1.4-0.2-0.8-0.2-1.3-0.7-0.6-0.5-0.9-1.1-0.4-0.7-0.4-1.4-0.1-0.8 0.1-1.5 0.3-0.7 0.7-1.2c2.7-3.2 6.8-4.4 11.5-3.2 9 2.1 18.8 12 20.9 21.1 2.5 10.9-1.3 21.8-9.7 27.7-3.8 2.7-8.2 4.1-12.6 4.1zm-174.2-94.8c-4.6 0-9.3-1.4-13.7-4.2-4.6-2.9-8.7-7.1-12.7-12.9-6.5-9.3-9.8-18.7-10-27.9-0.1-11 5.3-24.7 17.5-29 9.8-3.4 20.8 0.6 33.8 12.1 0.7 0.7 1.1 1.6 1.1 2.6 0.1 1-0.2 1.9-0.9 2.7-0.6 0.7-1.6 1.1-2.5 1.2-1 0.1-2-0.3-2.7-0.9-10.7-9.6-19.3-13.1-26.3-10.7-8.4 3-12.7 13.2-12.5 21.9 0.1 7.5 3.1 15.8 8.6 23.8 3.4 4.9 6.9 8.5 10.6 10.8 6.2 4 12.8 4.1 18 0.4 6-4.2 8.6-12 6.8-20-1.5-6.2-9.3-14.1-15.4-15.6-2.9-0.6-3.8 0.4-4.1 0.8q-0.4 0.6-1.1 0.9-0.6 0.3-1.4 0.4-0.7 0.1-1.4-0.2-0.7-0.2-1.3-0.7-0.6-0.4-0.9-1.1-0.3-0.6-0.4-1.4-0.1-0.7 0.2-1.4 0.2-0.7 0.7-1.3c2.6-3.2 6.7-4.3 11.4-3.2 9 2.2 18.8 12.1 20.9 21.2 2.5 10.9-1.3 21.7-9.7 27.7-3.8 2.7-8.1 4-12.6 4z"/>
		</g>
	</g>
	<path class="s16" d="m1348.6 1084.9l196.6-159.4-96.6 160c-13.6 22.6-5.8 52.1 17.2 65.1l144.4 81.1 30.3 136.1-298.6-85.1z"/>
	<path class="s3" d="m1581.1 1250.5l-0.8 12.8-2.8 43.2q-0.1 1.9-0.6 3.7-0.4 1.8-1.2 3.4-0.8 1.7-2 3.1-1.1 1.5-2.5 2.7c-4.5 4.1-11 5.9-17.5 4.1l-225.4-62.8-52.3-14.6c-39.2-11-58.8-55-40.6-91.6l66.3-132.4c30.6-61.3 91.2-101.9 159.5-106.9l39.4-2.8 40.1-2.7c1 5.9 2.5 11.3 4.9 16.7 3.5 8.3 5.5 16.2 11.7 22.8l-159.1 178.1c-8.4 9.3-5.7 24 5.4 29.9z"/>
	<g id="Clip-Path" clip-path="url(#cp2)">
		<g>
			<path class="s1" d="m1346.6 972.4c-9 0-18.2-2.8-26.8-8.3-8.9-5.7-17-13.9-24.8-25.1-12.6-18.3-19.2-36.7-19.5-54.6-0.3-21.4 10.3-48.2 34.2-56.5 19.1-6.7 40.6 1.1 65.9 23.6q1.1 1 1.7 2.3 0.6 1.3 0.7 2.7 0.1 1.5-0.4 2.8-0.5 1.4-1.5 2.5-0.9 1-2.2 1.7-1.3 0.6-2.8 0.7-1.4 0.1-2.8-0.4-1.3-0.5-2.4-1.5c-20.9-18.7-37.8-25.5-51.4-20.7-16.4 5.7-24.7 25.7-24.5 42.6 0.3 14.8 6.1 30.9 17 46.6 6.6 9.6 13.4 16.5 20.6 21 12.1 7.8 25 8.1 35.3 0.8 11.5-8.2 16.7-23.5 13.1-39-2.8-12.2-18-27.5-30.1-30.4-5.5-1.4-7.3 0.7-7.8 1.4q-1 1.1-2.2 1.8-1.3 0.6-2.8 0.8-1.4 0.1-2.8-0.3-1.3-0.5-2.5-1.4-1.1-0.9-1.7-2.2-0.7-1.3-0.8-2.7-0.1-1.5 0.3-2.8 0.4-1.4 1.4-2.5c5.2-6.2 13.1-8.5 22.3-6.3 17.6 4.3 36.7 23.6 40.8 41.3 5 21.3-2.5 42.5-18.9 54.1-7.4 5.3-15.9 8-24.6 8zm-36.1 151.2c-4.6 0-9.3-1.4-13.7-4.2-4.6-2.9-8.7-7.1-12.7-12.9-6.5-9.3-9.8-18.7-10-27.9-0.1-11 5.3-24.7 17.5-29 9.8-3.4 20.8 0.6 33.8 12.1 0.7 0.7 1.1 1.6 1.2 2.6 0 1-0.3 1.9-1 2.6-0.6 0.8-1.6 1.2-2.5 1.3-1 0-2-0.3-2.7-0.9-10.7-9.6-19.3-13.1-26.3-10.7-8.4 2.9-12.7 13.2-12.5 21.9 0.1 7.5 3.1 15.8 8.6 23.8 3.4 4.9 6.9 8.5 10.6 10.8 6.2 4 12.8 4.1 18 0.4 6-4.2 8.6-12 6.8-20-1.5-6.2-9.3-14.1-15.4-15.6-2.9-0.6-3.8 0.4-4 0.8q-0.5 0.5-1.2 0.9-0.6 0.3-1.4 0.4-0.7 0-1.4-0.2-0.7-0.2-1.3-0.7-0.5-0.4-0.9-1.1-0.3-0.7-0.4-1.4-0.1-0.7 0.2-1.4 0.2-0.7 0.7-1.3c2.6-3.2 6.7-4.3 11.4-3.2 9 2.2 18.8 12.1 20.9 21.1 2.5 10.9-1.3 21.8-9.7 27.8-3.8 2.7-8.1 4-12.6 4zm308.4 26c-7.5 0-15.3-2.4-22.5-7-7.4-4.7-14.2-11.6-20.7-21-10.7-15.4-16.2-30.8-16.4-45.8-0.3-17.9 8.6-40.4 28.6-47.4 16-5.6 34.1 0.9 55.3 19.8 1.1 1.1 1.9 2.6 1.9 4.2 0.1 1.6-0.5 3.2-1.5 4.4-1.1 1.2-2.6 1.9-4.2 2-1.6 0.1-3.1-0.4-4.3-1.5-17.6-15.7-31.7-21.4-43.2-17.4-13.7 4.8-20.7 21.6-20.4 35.7 0.1 12.4 5 25.9 14.2 39.1 5.5 8 11.2 13.8 17.2 17.7 10.2 6.4 21 6.7 29.6 0.6 9.7-6.9 14-19.7 11-32.7-2.4-10.2-15.1-23.1-25.2-25.5-4.6-1.2-6.1 0.6-6.6 1.2q-0.8 0.9-1.8 1.5-1.1 0.5-2.3 0.6-1.2 0.1-2.4-0.2-1.1-0.4-2.1-1.2-0.9-0.8-1.4-1.8-0.6-1.1-0.7-2.3-0.1-1.2 0.3-2.4 0.3-1.1 1.1-2.1c4.4-5.2 11-7 18.7-5.2 14.8 3.6 30.8 19.8 34.3 34.6 4.1 17.9-2.1 35.7-15.9 45.4-6.2 4.4-13.3 6.7-20.6 6.7zm-212.2 236.8c-9.4 0-19.1-2.9-28.2-8.7-9.4-6-17.9-14.6-26.1-26.4-13.4-19.3-20.3-38.7-20.6-57.6-0.3-22.6 10.8-50.9 36-59.6 20.2-7 42.9 1.1 69.5 24.9 1.5 1.4 2.4 3.3 2.5 5.3 0.1 2-0.6 3.9-2 5.4-1.3 1.5-3.2 2.4-5.2 2.6-2 0.1-4-0.6-5.5-1.9-22.1-19.7-39.8-26.9-54.2-21.9-17.3 6-26 27.2-25.8 45 0.3 15.6 6.4 32.5 17.9 49 7 10.2 14.1 17.4 21.7 22.3 12.8 8.1 26.4 8.4 37.2 0.8 12.2-8.6 17.6-24.8 13.8-41.1-2.9-12.9-18.9-29.1-31.7-32.1-5.8-1.4-7.6 0.8-8.2 1.5q-1 1.2-2.4 1.9-1.3 0.7-2.8 0.8-1.5 0.1-3-0.3-1.4-0.5-2.6-1.5-1.2-1-1.9-2.3-0.7-1.4-0.8-2.9-0.1-1.5 0.3-2.9 0.5-1.5 1.4-2.6c5.6-6.6 13.9-8.9 23.6-6.6 18.6 4.4 38.7 24.8 43.1 43.5 5.1 22.4-2.7 44.8-20 57.1-7.8 5.5-16.8 8.3-26 8.3zm255.5-119.1c-4.6 0-9.3-1.4-13.7-4.2-4.5-2.9-8.7-7.1-12.7-12.9-6.5-9.3-9.8-18.8-10-27.9-0.1-11 5.3-24.7 17.5-29 9.8-3.4 20.8 0.6 33.8 12.1 0.7 0.7 1.1 1.6 1.2 2.6 0 1-0.3 1.9-1 2.6-0.6 0.8-1.5 1.2-2.5 1.3-1 0-2-0.3-2.7-0.9-10.7-9.6-19.3-13.1-26.3-10.7-8.4 2.9-12.7 13.2-12.5 21.9 0.1 7.5 3.1 15.8 8.6 23.8 3.4 4.9 6.9 8.5 10.6 10.8 6.2 4 12.8 4.1 18.1 0.4 5.9-4.2 8.5-12 6.7-20-1.5-6.2-9.2-14.1-15.4-15.6-2.8-0.7-3.7 0.4-4 0.8q-0.5 0.5-1.2 0.9-0.6 0.3-1.4 0.4-0.7 0-1.4-0.2-0.7-0.2-1.3-0.7-0.5-0.5-0.9-1.1-0.3-0.7-0.4-1.4-0.1-0.7 0.2-1.4 0.2-0.7 0.7-1.3c2.6-3.2 6.7-4.3 11.4-3.2 9 2.2 18.8 12 20.9 21.1 2.5 10.9-1.3 21.8-9.7 27.8-3.8 2.7-8.1 4-12.6 4zm126.6-309.4c-4.6 0-9.3-1.4-13.7-4.2-4.6-2.9-8.7-7.1-12.7-12.9-6.5-9.3-9.9-18.7-10-27.9-0.2-11 5.2-24.7 17.5-29 9.8-3.4 20.8 0.6 33.7 12.1 0.8 0.7 1.2 1.6 1.3 2.6 0 1-0.3 1.9-1 2.7-0.6 0.7-1.6 1.2-2.5 1.2-1 0.1-2-0.3-2.7-0.9-10.7-9.6-19.4-13.1-26.4-10.7-8.3 2.9-12.6 13.2-12.5 21.9 0.1 7.5 3.1 15.8 8.7 23.8 3.4 4.9 6.9 8.5 10.6 10.8 6.2 4 12.8 4.1 18 0.4 5.9-4.2 8.6-12 6.7-20-1.4-6.2-9.2-14.1-15.4-15.6-2.8-0.6-3.7 0.4-4 0.8q-0.4 0.5-1.1 0.9-0.7 0.3-1.4 0.4-0.7 0-1.4-0.2-0.7-0.2-1.3-0.7-0.6-0.4-0.9-1.1-0.4-0.7-0.4-1.4-0.1-0.7 0.1-1.4 0.3-0.7 0.7-1.3c2.7-3.2 6.8-4.3 11.5-3.2 9 2.2 18.8 12.1 20.9 21.2 2.5 10.8-1.3 21.7-9.7 27.7-3.8 2.7-8.1 4-12.6 4zm-174.2-94.7c-4.6 0-9.3-1.5-13.7-4.3-4.5-2.9-8.7-7.1-12.7-12.8-6.5-9.4-9.8-18.8-10-28-0.1-10.9 5.3-24.7 17.5-28.9 9.8-3.4 20.8 0.5 33.8 12.1 0.7 0.6 1.1 1.6 1.2 2.5 0 1-0.3 2-1 2.7-0.6 0.7-1.5 1.2-2.5 1.2-1 0.1-2-0.2-2.7-0.9-10.7-9.6-19.3-13.1-26.3-10.6-8.4 2.9-12.7 13.2-12.5 21.8 0.1 7.6 3.1 15.8 8.6 23.8 3.4 5 6.9 8.5 10.6 10.8 6.2 4 12.8 4.1 18 0.4 6-4.2 8.6-12 6.8-19.9-1.5-6.3-9.2-14.1-15.4-15.6-2.8-0.7-3.7 0.4-4 0.7q-0.5 0.6-1.2 0.9-0.6 0.4-1.4 0.4-0.7 0.1-1.4-0.1-0.7-0.3-1.3-0.7-0.5-0.5-0.9-1.2-0.3-0.6-0.4-1.4-0.1-0.7 0.2-1.4 0.2-0.7 0.7-1.3c2.6-3.2 6.7-4.3 11.4-3.2 9 2.2 18.8 12.1 20.9 21.2 2.5 10.9-1.3 21.8-9.7 27.7-3.8 2.7-8.1 4.1-12.6 4.1z"/>
		</g>
	</g>
	<path class="s17" d="m1410.1 2349.4l-21.1 74.6h-136.4l6.9-58.8zm517.9 38.5l-125.2 54.2-30.4-66.5 141.8-34.3z"/>
	<path class="s1" d="m1690.5 915.3c-8 34.8-41.2 58.6-77.5 54.1l-11.4-1.3c-17-2.1-31.8-10.1-42.7-21.6q-2.1-2.3-4.1-4.8-2-2.4-3.7-5.1-1.7-2.6-3.2-5.4-1.5-2.8-2.7-5.7-0.8-1.8-1.5-3.7-0.6-1.8-1.2-3.7-0.6-1.9-1-3.8-0.5-1.9-0.8-3.9c5.5-2.3 10.5-5.6 14.8-9.5 3.7 15.1 14.4 41.7 43.6 46.6 39.4 6.6 61.4-8 80.4-42 3.4 4.2 7 7.4 11 9.8z"/>
	<path class="s18" d="m1666.1 881.9c-46.3 0-76.2-18.1-85.2-24.4l1.9-6.8q0 0.1 0.1 0.1 2.2 1 4.4 1.9 2.3 0.9 4.6 1.7 2.4 0.8 4.7 1.4 2.4 0.6 4.8 1.1 1.7 0.4 3.3 0.7 0.5 0 0.9 0.1 0.5 0.1 1 0.1 0.4 0.1 0.9 0.2 0.5 0 0.9 0.1c8.2 0.9 16.1 0.7 23.8-0.5q3.2-0.5 6.3-1.3 3.1-0.7 6.1-1.7 3.1-1 6-2.2 3-1.3 5.8-2.7c2.8 12.2 6 23 9.7 32.2z"/>
	<path class="s19" d="m1729.7 1452l0.9 45.9q0 0.2-0.1 0.3-0.1 0.2-0.4 0.2-0.2 0-0.3-0.1-0.2-0.2-0.2-0.4zm1.8 91.8l0.7 45.9c0 0.3-0.1 0.6-0.3 0.8-0.3 0.3-0.6 0.4-0.9 0.4-0.3 0-0.6-0.1-0.9-0.3-0.2-0.2-0.3-0.6-0.4-0.9v-45.9q0-0.4 0.2-0.6 0.3-0.3 0.7-0.3 0.3 0 0.6 0.2 0.3 0.3 0.3 0.7zm1.4 91.8l0.7 45.9c0 0.4-0.2 0.9-0.5 1.2-0.4 0.3-0.8 0.5-1.3 0.5-0.4 0-0.9-0.1-1.2-0.5-0.3-0.3-0.5-0.7-0.5-1.2l-0.2-45.9c0-0.4 0.2-0.8 0.4-1.1 0.3-0.2 0.7-0.4 1.1-0.4 0.4 0 0.8 0.1 1 0.4 0.3 0.3 0.5 0.7 0.5 1.1zm1.3 91.8l0.5 45.8c0 0.6-0.2 1.1-0.6 1.5-0.4 0.4-0.9 0.6-1.4 0.6-0.6 0-1.1-0.2-1.5-0.6-0.4-0.4-0.6-0.9-0.6-1.4l-0.3-45.9c0-0.5 0.2-1 0.6-1.4 0.3-0.3 0.8-0.5 1.3-0.5 0.5 0 1 0.2 1.4 0.5 0.3 0.4 0.6 0.8 0.6 1.4zm1 91.7l0.5 45.9c0 0.6-0.2 1.2-0.6 1.6-0.5 0.4-1 0.6-1.6 0.7-0.6 0-1.1-0.3-1.6-0.7-0.4-0.4-0.6-0.9-0.6-1.5l-0.4-45.9c0-0.6 0.3-1.1 0.7-1.5 0.3-0.4 0.9-0.7 1.4-0.7 0.6 0 1.1 0.3 1.5 0.6 0.4 0.4 0.7 1 0.7 1.5zm1 91.8l0.2 23c0 3.8 0 7.6 0.1 11.4q0.1 1.4 0.2 2.8 0.1 1.4 0.2 2.8 0.1 1.4 0.3 2.8 0.2 1.4 0.4 2.8c0.1 1.2-0.7 2.3-1.9 2.5-1.3 0.2-2.4-0.7-2.6-1.9q-0.8-5.8-1.1-11.6c-0.1-3.9-0.1-7.8-0.2-11.6l-0.2-22.9c0-0.6 0.3-1.2 0.7-1.6 0.4-0.4 1-0.7 1.6-0.7 0.6 0 1.1 0.2 1.6 0.6 0.4 0.5 0.7 1 0.7 1.6zm14.1 89.1l15.1 43.4c0.2 0.5 0.2 1-0.1 1.5-0.2 0.5-0.6 0.8-1.1 1-0.5 0.2-1.1 0.2-1.6-0.1-0.5-0.2-0.8-0.6-1-1.1l-15.3-43.3c-0.2-0.5-0.2-1.1 0.1-1.6 0.2-0.5 0.7-0.9 1.2-1.1 0.5-0.2 1.1-0.1 1.6 0.1 0.5 0.3 0.9 0.7 1.1 1.2zm30.3 86.7l15 43.3c0.2 0.5 0.1 1-0.1 1.4-0.2 0.4-0.6 0.7-1 0.9-0.5 0.1-0.9 0.1-1.4-0.1-0.4-0.2-0.7-0.5-0.9-1l-15.4-43.2c-0.1-0.5-0.1-1 0.1-1.5 0.2-0.5 0.6-0.9 1.1-1 0.5-0.2 1.1-0.2 1.6 0 0.4 0.3 0.8 0.7 1 1.2zm30 86.7l14.9 43.4c0.2 0.3 0.1 0.7 0 1-0.2 0.3-0.4 0.5-0.8 0.6-0.3 0.1-0.6 0.1-0.9 0-0.4-0.2-0.6-0.4-0.7-0.7l-15.5-43.3c-0.1-0.3-0.1-0.8 0.1-1.2 0.2-0.3 0.5-0.6 0.9-0.8 0.4-0.1 0.8-0.1 1.2 0.1 0.4 0.2 0.7 0.5 0.8 0.9zm29.9 86.8l14.8 43.4q0.1 0.3-0.1 0.5-0.1 0.2-0.3 0.3-0.2 0.1-0.4 0-0.2-0.1-0.3-0.4l-15.6-43.1q-0.2-0.4 0-0.8 0.2-0.4 0.6-0.5 0.4-0.1 0.7 0 0.4 0.2 0.6 0.6zm29.5 86.9l3.4 9.9-3.6-9.8q0-0.1 0-0.1 0-0.1 0.1-0.1 0 0 0.1 0 0 0 0 0.1zm-344.2-576.7c-3.6 14.9-7.3 29.7-11 44.5q-0.1 0.3-0.3 0.5-0.3 0.1-0.6 0.1-0.2-0.1-0.4-0.4-0.1-0.2-0.1-0.5c4.1-14.8 8.2-29.5 12.4-44.2zm-22.2 89.1l-11.3 44.4c-0.1 0.5-0.4 0.8-0.8 1-0.3 0.3-0.8 0.3-1.2 0.2-0.4-0.1-0.8-0.4-1-0.8-0.2-0.3-0.3-0.8-0.2-1.2l12.1-44.3c0.1-0.3 0.3-0.6 0.6-0.7 0.3-0.2 0.6-0.2 0.9-0.2 0.4 0.1 0.6 0.3 0.8 0.6 0.2 0.3 0.2 0.6 0.1 1zm-22.7 88.9l-11.6 44.4c-0.1 0.5-0.5 1-0.9 1.3-0.5 0.3-1.1 0.3-1.6 0.2-0.6-0.1-1-0.5-1.3-1-0.3-0.4-0.4-1-0.2-1.5v-0.1l11.8-44.3c0.1-0.5 0.5-0.9 0.9-1.2 0.5-0.2 1-0.3 1.5-0.2 0.5 0.2 0.9 0.5 1.2 0.9 0.2 0.5 0.3 1 0.2 1.5zm-23.2 88.8l-5.8 22.2-5.8 22.2c-0.2 0.6-0.6 1.1-1.1 1.4-0.5 0.3-1.1 0.3-1.7 0.2-0.6-0.2-1.1-0.5-1.4-1.1-0.3-0.5-0.3-1.1-0.2-1.6l5.8-22.2 5.9-22.2c0.2-0.6 0.6-1.1 1.1-1.4 0.5-0.3 1.1-0.3 1.7-0.2 0.5 0.2 1 0.5 1.3 1 0.3 0.5 0.4 1.1 0.2 1.7zm-23.5 88.7l-11.8 44.4c-0.1 0.5-0.5 0.9-0.9 1.2-0.5 0.3-1 0.3-1.5 0.2-0.6-0.1-1-0.5-1.3-0.9-0.2-0.5-0.3-1-0.2-1.5l11.6-44.4c0.2-0.6 0.5-1.1 1-1.3 0.5-0.3 1.1-0.4 1.6-0.3 0.6 0.2 1 0.5 1.3 1 0.3 0.5 0.4 1.1 0.2 1.6zm-23.8 88.7l-12 44.3c-0.1 0.3-0.4 0.6-0.7 0.8-0.3 0.2-0.7 0.2-1 0.1-0.3-0.1-0.6-0.3-0.8-0.6-0.2-0.3-0.2-0.7-0.2-1l11.4-44.5c0.1-0.4 0.4-0.8 0.8-1 0.4-0.3 0.8-0.3 1.3-0.2 0.4 0.1 0.8 0.4 1 0.8 0.3 0.4 0.3 0.8 0.2 1.3zm-24.2 88.5l-12.4 44.2q0 0.1-0.1 0.1 0 0.1-0.1 0-0.1 0-0.1-0.1-0.1 0 0-0.1l11-44.5q0.1-0.4 0.4-0.6 0.3-0.1 0.7 0 0.3 0 0.5 0.3 0.2 0.4 0.1 0.7z"/>
	<path class="s20" d="m1241.4 2495.4c-18.7 20.7-53.3 47.4-75.4 58.2-21.1 10.4-55.5 11.1-66.1 15.7-20.3 8.9-9.4 12.8-13.8 24.8-2.5 27.2 158.8 15.7 201.8 11.8 23.3 1.2 45.6 1.2 68.2-5.1 5.9-1.7 10.7-10.2 11.9-14 7.7-24.3-0.5-66-10.2-80.7-9.7-14.8-8.1-13.8-19.4-8.3-11.3 5.6-15.3 24.4-35.4 23.4-20.1-0.9-39-10.6-52.6-26.4-3.2 0.2-5.4 0.1-9 0.6z"/>
	<path class="s21" d="m1356.7 2503.5c0.1 0 0.1-0.3 0-0.3-5.8-4.2-8.2-14.3-18.5-5.9-10.3 8.4-15.5 23.7-35.3 23.8-19.7 0-39.1-11.1-52.5-26.3q-0.9 0-1.8 0.1-0.9 0-1.8 0-0.9 0.1-1.9 0.2-0.9 0-1.8 0.1c17.1 27.3 39.3 39.3 72.1 38.7 20-0.4 35.9-10.7 41.5-30.4z"/>
	<path class="s20" d="m1857.5 2490.9c-2.5 21.2-11.7 40.1-30.3 47.9-17.7 7.6-45.6 5.8-57.4 10.5-22.7 9.1-9.8 11.1-18.8 26 26.4 47.4 166 9.6 202.7-15.2 19.9-12.1 38.4-27.6 55.3-43.4 4.4-4.1 3.7-13.6 2.7-17.4-6.3-25.1-32.2-52.1-50-62.3-17.7-10.2-13.9-9.2-23.5 2.3-9.5 11.6-0.3 29.5-16.3 39.2-16 9.8-37.6 12-56.5 7.6-2.9 1.6-5.1 2.8-7.9 4.8z"/>
	<path class="s21" d="m1956.3 2433.1c0-0.1-0.1-0.6-0.2-0.6-9.8 0.4-13.8-6.5-18.9 6.5-5.1 12.9-0.5 29.2-15.6 39.5-15.1 10.2-37.7 12-56.1 7.6-2.4 1.2-4.2 2.3-6.3 3.7 29.2 9.9 54.1 10.1 80.4-8.4 15.9-11.3 19.7-29.5 16.7-48.3z"/>
	<path class="s22" d="m1681.8 1384.4c-3.9 8.2-12.4 14.5-21.5 14.2-4.1-0.1-8.2-1.6-12-3.2-17-7.1-32.8-17.2-46.2-29.9-2.1-2-4.3-4.2-6.7-6v-34.5q3.4 1.1 6.5 2.6 3.2 1.6 6.1 3.6 2.9 2 5.4 4.4 2.6 2.4 4.8 5.1l22.8 28.7q1.5 1.8 3.3 3.3 1.9 1.4 4.1 2.4 2.1 1.1 4.4 1.6 2.4 0.5 4.7 0.5c4.6 0 9.2-1.4 13.1-4.4 1.7-1.3 3.2-2.9 4.4-4.7 1.2-1.9 2.1-3.9 2.6-6 0.5-2.1 0.7-4.3 0.5-6.4-0.2-2.2-0.7-4.3-1.6-6.3l-7.1-15.6 0.4 0.1c5.2 7.4 10.1 15.2 12.8 23.9 2.7 8.7 3 18.4-0.8 26.6z"/>
	<path class="s6" d="m1890.1 2700h-807c-21.3 0-38.5-17.3-38.5-38.5v-99.6c0-21.3 17.2-38.5 38.5-38.5h807c21.3 0 38.5 17.2 38.5 38.5v99.6c0 21.2-17.2 38.5-38.5 38.5z"/>
	<path class="s23" d="m1519.4 655.5l0.3 1.1q-0.2-0.5-0.3-1.1z"/>
	<path class="s11" d="m1733.7 755.4c-0.1 1-1.1 1.8-1.4 2.8-0.5 1.5-0.8 2.9-1.5 4.3-0.1 0.4-0.3 0.8-0.7 1.1-1.2 1-4.8-1-6-1.5q-0.7-0.2-1.4-0.5-0.7-0.3-1.4-0.6-0.7-0.3-1.4-0.7-0.7-0.3-1.4-0.6 0 0-0.1-0.1c-4.4-2.2-7.1-6.5-8.7-11.3q-0.2-0.2-0.5-0.3-0.2-0.2-0.5-0.4-0.2-0.2-0.4-0.4-0.2-0.2-0.4-0.4c-4.2-4.7-0.9-12.7-4.3-18q-0.2-0.2-0.3-0.4c-0.9-1.1-1.9-1.9-3.1-2.5-3.6-1.9-8.4-1.8-12.7-1.7q-0.9 0-1.8 0c-4.5 0-9-0.3-13.3-1-6.8-1.1-13.3-3.2-19.3-6.5q-1-0.5-1.9-1.1-0.9-0.5-1.8-1.2-0.9-0.6-1.8-1.2-0.9-0.7-1.7-1.4c-8.2-5.5-15.1-12.3-14.9-18.8-1 0.6-2.2 1.5-3.9 2.8q0 0-0.1 0c-4.9 3.4-10.5 5.1-16.3 5.4q-0.2 0-0.3 0-2 0-4-0.1-1.1-0.1-2.1-0.2-1.5-0.2-3-0.6c-11.4-2.4-22.1-8.3-33.7-8.7-2.8-2.8-5.4 2.5-9 3.9q-1.6 0.7-3.2 1.3-0.9 0.4-1.8 0.7-1.5 0.6-3 1.1-0.7 0.2-1.4 0.4-0.8 0.3-1.6 0.6-2.6 0.8-5.1 1.6-3.7 1-7.4 2c-4.9 1.2-9.9 2.3-15.1 3.4-7.7-9.5 3.7-21.2 12.3-29.8 4.4-4.3 9.8-7.3 15.6-9.5 2.8-5.6 6.2-10.8 10.7-14.6 21.9-18.2 53-32.6 81.7-30.8 9.6 0.6 22.6 12.3 31.5 16.1 6.7 3 13 7.1 18.7 11.7 31 24.8 49.8 66.5 43.2 105.7z"/>
	<path class="s24" d="m1627 695.8c-4.2 3.5-10.2 5.2-16.3 5.4 5.8-0.3 11.4-2 16.3-5.4z"/>
	<path class="s18" d="m1671.8 722.7q-0.2 0-0.5 0 0.2 0 0.5 0z"/>
	<path class="s18" d="m1729.7 764.3c-4.2 0.2-8.6-1-12.2-3.1-6.5-3.8-11.3-9.9-16.2-15.6-2.3-2.6-4.8-5.2-7.5-7.5-3.8 1.8-8.1 2.4-12.4 2.5-11.9 0.3-23.9-3-34-9.2-5.2-3.3-10.3-7.4-16.4-8.3-7.5-1.2-14.6 2.9-22.1 2.2-6.4-0.6-11.2-3.1-18.3-3-15.1 0.4-30.6 3.7-45.3-1.5q-3-1-5.1-2.4l1.4-11.7q0.4-2.8 0.9-5.5 2.5-0.8 5.1-1.6 0.8-0.3 1.6-0.6 0.7-0.2 1.4-0.4 1.5-0.5 3-1.1 0.9-0.3 1.8-0.7 1.6-0.6 3.2-1.3c3.6-1.4 6.2-6.7 9-3.9 11.6 0.4 22.3 6.3 33.7 8.7q1.5 0.4 3 0.6 1.1 0.1 2.1 0.2 2 0.2 4 0.1 0.1 0 0.3 0c5.8-0.3 11.4-2 16.3-5.4q0.1 0 0.1 0c1.7-1.3 2.9-2.2 3.9-2.8-0.2 6.5 6.7 13.3 14.9 18.8 9 6 19.6 10.4 24.1 10.8q0.6 0.1 1.3 0.1c-0.2 0-0.3 0.2-0.5 0.2 2.7 0 6.6-0.1 9.1 0 7.4 0.2 16.5 0.8 20.9 3 1.3 0.6 2.2 1.5 2.5 2.5q0.1 0.2 0.3 0.4c3.4 5.3 0.1 13.3 4.3 18q0.2 0.2 0.4 0.4 0.2 0.2 0.4 0.4 0.3 0.2 0.5 0.4 0.3 0.1 0.5 0.3c1.6 4.8 4.3 9.1 8.7 11.3q0.1 0.1 0.1 0.1c3.7 1.8 7.5 1.8 11.4 1"/>
	<path class="s25" d="m3032.3 818.2c10.2-6 13.9-18.6 18.7-29.4 0.9-2.1 2-4.2 3.9-5.6 1.8-1.4 4.2-1.9 6.5-2.1 11-0.8 21.9 3.6 33 3 5.9-0.3 11.7-2 17.2-4.1 8.9-3.3 17.6-7.8 23.7-15 6.1-7.1 9.2-17.5 5.8-26.3-4-10.1-14.8-15.4-24.8-19.5-14.9-6.1-30.4-11.6-46.5-12.8-16.1-1.2-33.1 2.2-45.7 12.3-8.4 6.6-14.4 15.8-19.3 25.3-8.8 16.8-14.8 36.4-12.4 55.5 1.2 9 2.3 16.4 10.8 19.7 8.8 3.4 20.8 3.9 29.1-1z"/>
	<path class="s15" d="m3029.6 1920l-82.8 584.3 81.2 9.6 151.6-558.1zm432.5 7l371.7 225.8 43.7-69.1-318.3-276.5z"/>
	<path class="s17" d="m3780.7 1985.6l-35.8 63.3-34 59.9-31 54.7-32-26.5-18-14.8-58.6-48.5-186.2-153.9-18.7-15.4c-31.9-27.6-53.3-65.4-60.4-107l-27.1-158q-0.1 0.1-0.1 0.2c-7.4 11.7-21.3 105.2-35.5 216-14.8 114.4-30 247.3-39 327.4-1.3 12.2-6.5 47.8-11.9 83.4-6 40.5-12.1 81.1-12.8 87.7-1 8.9-6.8 48.4-6.8 48.4h-219.2l12.1-87.9 3.8-29.6 98.5-751.8 1.3-10 4.3-34.1 2.7-21.5 21.5-171.2 282.4-87 42.3 65.7q12.5 19.4 23.2 39.9 10.7 20.5 19.5 41.9 8.7 21.4 15.5 43.5 6.8 22.1 11.6 44.7 3.6 17.3 6 34.7 2.4 17.5 3.6 35.2 1.2 17.6 1.2 35.2-0.1 17.7-1.3 35.3l-7.8 107.1q-0.3 4.9 0.1 9.8 0.3 5 1.4 9.8 1.1 4.8 2.9 9.4 1.8 4.6 4.2 8.9 1.3 2.3 2.8 4.5 1.5 2.2 3.2 4.3 1.7 2.1 3.5 4 1.9 1.9 3.9 3.7l27.3 24.6 145.4 131.1 58.9 53.1 13.1 11.8z"/>
	<path class="s26" d="m3383.7 984.3c-4.2 1.7-30.9 7.8-68 15.2-81.2 16.2-212.4 38.8-267.9 35.4-16-1-25.7-4.1-26.2-10.1-0.4-4.3 0.1-8.9 1.3-13.7 7.5-31.1 41.8-71.9 35.5-119.3 12.7 6 27.1 8.3 41.2 6.4 7.4-0.9 14.8-3 21.8-6.4 0.9-0.3 1.8-0.8 2.7-1.2q1.4-0.8 2.8-1.6c6.2-3.6 11.7-7.9 16.4-12.8 19.4-20.2 25.9-50.1 16-76.8l2.2-3.5c5.1-8.4 6.6-18.5 4.1-27.9q-0.5-2.2-1.4-4.4l-0.7-1.6-3.2-8-0.9-2.3c-3-7.5-12.6-9.4-18.2-3.7l-6.5 6.6c-45 40.2-109.1-4.6-109.1-4.6 0 0 9.6 62.9-20.1 67.8q-2.2 0.3-4.8 0.2c-35.5-1.3-63.3-78.3-22-121.2 5.9-6 12.2-11.6 19.1-16.5q1.3-0.9 2.6-1.8c13.7-9.3 29.4-16.2 46.9-20 35.9-7.6 79.3-1.7 128.3 24.8 22 11.9 41.1 31.4 58.5 54 51.4 66.7 88.1 160.1 138.5 161.6 67.5 2 27 79 11.1 85.4z"/>
	<path class="s21" d="m3159.3 799.4c9.9 26.7 3.4 56.6-16 76.8q-1.8 1.8-3.7 3.6-1.9 1.7-4 3.4-2.1 1.6-4.2 3-2.2 1.5-4.4 2.8-1.5 0.8-2.9 1.6c-0.9 0.4-1.8 0.9-2.7 1.3q-2.6 1.2-5.2 2.2-2.7 1-5.4 1.8-2.8 0.8-5.6 1.4-2.8 0.6-5.6 0.9c-14.1 1.9-28.5-0.4-41.2-6.4-0.9-7.2-2.8-14.4-5.8-21.9l-47.1-52.1c29.7-4.9 20.1-67.8 20.1-67.8 0 0 64.1 44.8 109.1 4.6l6.5-6.6c5.6-5.7 15.2-3.8 18.2 3.7l4.8 11.9q1.6 3.9 2.2 8.1 0.6 4.2 0.3 8.4-0.4 4.2-1.7 8.2-1.3 4-3.5 7.6z"/>
	<path class="s14" d="m3355.7 949.1c-3.6 12.6-11.5 23.6-20.6 33.1-6 6.4-12.5 12.1-19.4 17.3-36.1 27-82.7 39.1-127.9 45.7-30.9 4.5-62.3 7.1-93.3 3.6-16-1.8-32.7-6.1-46.7-13.9-10.3-5.8-19.1-13.6-24.9-23.8 7.5-31.1 41.8-71.9 35.5-119.3 12.7 6 27.1 8.3 41.2 6.4 7.4-0.9 14.8-3 21.8-6.4 0.9-0.3 1.8-0.8 2.7-1.2q1.4-0.8 2.8-1.6c6.2-3.6 11.7-7.9 16.4-12.8 19.4-20.2 25.9-50.1 16-76.8l2.2-3.5c5.1-8.4 6.6-18.5 4.1-27.9q0.9 0.7 1.6 1.6l-3.7-7.6-4.8-10.1q0.8 1 1.6 2.1 3 3.9 5.6 8.1 2.6 4.2 4.8 8.6 2.2 4.4 4 9 1.8 4.6 3.1 9.4c4.2 14.7 5.2 30.4 11.5 44.3 9.4 20.7 29.4 34.9 50.7 43 21.3 8 44.1 10.8 66.5 14.7 16.2 2.8 33.8 7.2 43.6 20.4 7.9 10.5 9.2 24.9 5.6 37.6z"/>
	<path class="s15" d="m3203.8 932.6v0.1q-0.5 1.5-1 3-0.6 1.4-1.1 2.9-0.6 1.5-1.3 2.9-0.7 1.4-1.4 2.8c-5.4 10.5-12.2 17.2-15.3 20q-0.3 0.2-0.5 0.4-0.2 0.2-0.4 0.3-0.2 0.2-0.5 0.4-0.2 0.2-0.4 0.3c-52.9 34.7-83.8 16.3-100.1-3.7-2.6-3.3-4.9-6.6-6.8-9.8q1-0.6 2-1.4 1-0.7 2-1.6 0.9-0.8 1.8-1.7 0.9-0.8 1.7-1.8c8.6-10 10.5-23.9 9.9-36.2-0.4-8.9-2.1-17-3.5-22.3-1-3.9-1.9-6.3-1.9-6.3 0 0 30-53.8 44.6-21.9 1 2.2 2.1 4.3 3.2 6.3 13.2 23.4 34.3 32.7 50.3 36.4 12.3 2.9 21.5 2.4 21.5 2.4 1 11-0.3 20.5-2.8 28.5z"/>
	<path class="s18" d="m3075 952.2c1.9 3.2 4.1 6.5 6.8 9.8-15.3-1.2-22.4-3-15.1-5.7 3.1-1.1 5.9-2.5 8.3-4.1zm192.8 11.4c0 0-16.8 0.3-40.6 0.5q-5.6 0.1-11.8 0.1c-9.9 0.1-20.7 0.1-31.8 0.1 3.2-2.8 10-9.5 15.4-20q0.7-1.4 1.4-2.8 0.6-1.4 1.2-2.9 0.6-1.5 1.2-2.9 0.5-1.5 1-3v-0.1c2.5-8 3.8-17.6 2.8-28.5l20.5 19.9z"/>
	<path class="s4" d="m3438.7 1297.4l-97.5 19.7q-12.1 2.5-23.8 6.6-11.6 4.1-22.6 9.8-10.9 5.7-21 12.8-10 7.1-19 15.6l-34.7 32.7c-4 3.8-8.5 7.1-13.5 9.5q-4.6 2.1-9.5 3.3-4.9 1.3-10 1.5-5 0.3-10-0.4-5-0.8-9.8-2.4c-25.6-8.9-53.4 6-60 32.3l-9.5 37.3-254.1-374.2c9.3-14 19.6-27.2 30.9-39.6 11.2-12.4 23.5-23.8 36.6-34.3 13.1-10.4 27-19.8 41.6-28.1 14.5-8.3 29.7-15.4 45.4-21.3l58.2-22.4 16.9-6.5 9.2-3.6q-0.8 1-1.7 1.8-0.9 0.9-1.8 1.7-1 0.9-2 1.6-1 0.8-2 1.4c1.9 3.2 4.1 6.5 6.8 9.8 16.3 20 47.2 38.5 100.1 3.7 0 0 0.7-0.5 1.7-1.4 3.2-2.8 10-9.5 15.4-20q0.7-1.4 1.4-2.8 0.6-1.4 1.2-2.9 0.6-1.5 1.2-2.9 0.5-1.5 1-3l13.3 17.9 3.5 4.6 6.6 8.9 26.3 35.3 129.5 208.3z"/>
	<g id="Clip-Path" clip-path="url(#cp3)">
		<g>
			<path class="s1" d="m3019.9 1313c-4.8 6.1-11.5 10.9-19.8 13.8-8.5 3.1-18.4 4.2-30.1 3.6-19.1-1.1-35.1-6.4-47.4-15.7-14.7-11.1-27.3-32.4-20.3-53.1 5.6-16.4 22.2-27 50.9-32.1 1.6-0.3 3.3 0 4.6 1 1.4 0.9 2.3 2.4 2.6 4 0.3 1.6-0.1 3.3-1 4.6-0.9 1.4-2.4 2.3-4 2.6-23.8 4.3-37.3 12.2-41.3 24-4.8 14.1 4.5 30.3 16.1 39.1 10.1 7.6 24.1 12.2 40.5 13.1 10 0.6 18.3-0.4 25.2-2.8 11.7-4.2 18.7-12.8 19.2-23.6 0.5-12.1-7.1-23.7-19.6-29.5-9.7-4.5-28.2-2.3-36.5 4.3-3.8 3.1-3.3 5.3-3.2 6.1q0.3 1.2 0.1 2.4-0.3 1.3-1 2.3-0.6 1-1.6 1.7-1.1 0.7-2.3 1-1.2 0.3-2.4 0-1.2-0.2-2.3-0.9-1-0.6-1.7-1.7-0.7-1-1-2.2c-1.5-6.8 1.2-13.4 7.6-18.4 12.2-9.8 35.4-12.5 49.6-5.9 17 7.9 27.5 24.1 26.7 41.4-0.3 7.9-3 15-7.6 20.9zm83.5 104.5c-2.4 3.1-5.9 5.5-10.1 7-4.4 1.6-9.4 2.2-15.4 1.8-9.8-0.5-18-3.2-24.3-8-7.5-5.6-14-16.6-10.4-27.1 2.9-8.5 11.4-13.9 26.1-16.5 0.8-0.2 1.7 0 2.3 0.5 0.7 0.5 1.2 1.2 1.3 2.1 0.2 0.8 0 1.6-0.5 2.3-0.4 0.7-1.2 1.2-2 1.4-12.2 2.2-19.1 6.2-21.1 12.2-2.5 7.2 2.2 15.6 8.2 20 5.2 4 12.3 6.3 20.7 6.8 5.2 0.3 9.4-0.2 12.9-1.5 6-2.1 9.6-6.5 9.8-12 0.3-6.3-3.6-12.2-9.9-15.2-5-2.3-14.5-1.2-18.8 2.3-1.9 1.5-1.7 2.7-1.6 3.1q0.1 0.6 0 1.2-0.1 0.6-0.4 1.2-0.4 0.5-0.9 0.9-0.5 0.3-1.1 0.5-0.7 0.1-1.3 0-0.6-0.1-1.2-0.5-0.5-0.3-0.8-0.9-0.4-0.5-0.5-1.1c-0.8-3.5 0.6-6.9 3.8-9.4 6.3-5 18.2-6.4 25.4-3.1 8.8 4.1 14.1 12.4 13.7 21.3-0.1 4-1.5 7.6-3.9 10.7zm180.7-195.5c-4 5.1-9.7 9.1-16.6 11.5-7.2 2.6-15.4 3.5-25.3 3-16-0.9-29.4-5.3-39.7-13.1-12.3-9.3-22.9-27.2-17-44.5 4.7-13.8 18.6-22.7 42.7-27 1.3-0.2 2.7 0.1 3.8 0.9 1.1 0.8 1.9 2 2.2 3.3 0.2 1.4-0.1 2.8-0.9 3.9-0.7 1.1-1.9 1.9-3.3 2.2-19.9 3.6-31.3 10.2-34.6 20-4 11.9 3.7 25.5 13.4 32.8 8.5 6.5 20.3 10.3 34 11 8.4 0.5 15.4-0.3 21.2-2.3 9.7-3.5 15.6-10.7 16-19.8 0.5-10.2-5.9-19.9-16.3-24.7-8.2-3.8-23.7-2-30.7 3.6-3.2 2.5-2.8 4.5-2.6 5.1q0.2 1 0 2-0.2 1.1-0.8 1.9-0.5 0.9-1.4 1.5-0.9 0.6-1.9 0.8-1 0.2-2 0-1-0.2-1.9-0.7-0.9-0.6-1.5-1.4-0.6-0.9-0.8-1.9c-1.2-5.7 1.1-11.2 6.4-15.5 10.2-8.1 29.6-10.4 41.6-4.9 14.3 6.6 23.1 20.2 22.4 34.7-0.3 6.6-2.6 12.6-6.4 17.6zm48.5 269.1c-5 6.4-12.1 11.5-20.8 14.6-9 3.2-19.4 4.4-31.8 3.7-20.1-1.1-36.9-6.7-49.9-16.5-15.5-11.7-28.8-34.2-21.4-55.9 5.9-17.4 23.4-28.5 53.6-34 1.7-0.3 3.5 0.1 4.9 1.1 1.4 1 2.4 2.5 2.7 4.2 0.3 1.7 0 3.5-1 4.9-1 1.5-2.5 2.5-4.2 2.8-25.1 4.5-39.3 12.8-43.6 25.2-5 14.9 4.7 32 16.9 41.2 10.7 8.1 25.5 12.9 42.8 13.9 10.6 0.6 19.2-0.4 26.5-3 12.4-4.4 19.7-13.4 20.2-24.8 0.6-12.9-7.4-25.1-20.5-31.2-10.3-4.7-29.8-2.4-38.6 4.6-4 3.2-3.5 5.6-3.3 6.4q0.3 1.3 0 2.6-0.2 1.3-0.9 2.4-0.7 1-1.8 1.8-1.1 0.7-2.4 1-1.3 0.3-2.5 0-1.3-0.2-2.4-0.9-1.1-0.7-1.9-1.8-0.7-1.1-1-2.4c-1.5-7.2 1.3-14.1 8-19.4 12.9-10.3 37.3-13.2 52.3-6.2 18 8.3 29 25.5 28.2 43.7-0.4 8.3-3.2 15.8-8.1 22zm54.3-236.3c-2.4 3.1-5.9 5.6-10.2 7.1-4.3 1.5-9.4 2.1-15.4 1.8-9.8-0.6-17.9-3.3-24.2-8-7.5-5.7-14-16.6-10.4-27.2 2.8-8.4 11.4-13.8 26-16.5 0.9-0.1 1.7 0 2.4 0.5 0.7 0.5 1.2 1.3 1.4 2.1 0.1 0.8-0.1 1.7-0.6 2.4-0.4 0.7-1.2 1.2-2 1.3-12.2 2.2-19.1 6.2-21.2 12.3-2.4 7.2 2.3 15.5 8.2 20 5.2 3.9 12.4 6.2 20.8 6.7 5.1 0.3 9.4-0.2 12.9-1.4 6-2.2 9.6-6.6 9.8-12.1 0.3-6.2-3.6-12.2-10-15.1-5-2.3-14.4-1.2-18.7 2.2-2 1.5-1.7 2.7-1.6 3.1q0.1 0.6 0 1.2-0.1 0.7-0.5 1.2-0.3 0.5-0.8 0.9-0.6 0.4-1.2 0.5-0.6 0.1-1.2 0-0.7-0.1-1.2-0.5-0.5-0.3-0.9-0.8-0.3-0.5-0.5-1.2c-0.7-3.5 0.7-6.8 3.9-9.4 6.3-5 18.1-6.4 25.4-3 8.7 4 14.1 12.4 13.7 21.2-0.2 4-1.6 7.7-3.9 10.7zm-143-249.5c-2.5 3.1-5.9 5.6-10.2 7.1-4.3 1.6-9.4 2.1-15.4 1.8-9.8-0.5-17.9-3.2-24.2-8-7.6-5.7-14-16.6-10.4-27.2 2.8-8.4 11.4-13.8 26-16.5 0.9-0.1 1.7 0.1 2.4 0.6 0.7 0.5 1.1 1.2 1.3 2 0.1 0.9 0 1.7-0.5 2.4-0.5 0.7-1.2 1.2-2 1.3-12.2 2.2-19.1 6.2-21.2 12.3-2.4 7.2 2.3 15.5 8.2 20 5.2 3.9 12.4 6.3 20.8 6.7 5.1 0.3 9.3-0.2 12.9-1.4 6-2.1 9.5-6.5 9.8-12.1 0.3-6.2-3.6-12.1-10-15.1-5-2.3-14.4-1.2-18.7 2.2-2 1.6-1.7 2.7-1.6 3.1q0.1 0.7 0 1.3-0.1 0.6-0.5 1.1-0.3 0.6-0.8 0.9-0.6 0.4-1.2 0.5-0.6 0.2-1.2 0-0.7-0.1-1.2-0.4-0.5-0.4-0.9-0.9-0.4-0.5-0.5-1.1c-0.7-3.5 0.6-6.9 3.9-9.5 6.2-5 18.1-6.4 25.4-3 8.7 4.1 14.1 12.4 13.7 21.2-0.2 4-1.6 7.7-3.9 10.7zm-156.4 68.1c-2.4 3.1-5.9 5.6-10.2 7.1-4.3 1.5-9.4 2.1-15.4 1.8-9.8-0.6-17.9-3.3-24.2-8-7.5-5.7-14-16.6-10.4-27.2 2.8-8.4 11.4-13.8 26-16.5 0.9-0.1 1.7 0.1 2.4 0.6 0.7 0.4 1.2 1.2 1.3 2 0.2 0.8 0 1.7-0.5 2.4-0.5 0.7-1.2 1.1-2 1.3-12.2 2.2-19.1 6.2-21.2 12.3-2.4 7.2 2.3 15.5 8.2 20 5.2 3.9 12.4 6.2 20.8 6.7 5.1 0.3 9.4-0.2 12.9-1.4 6-2.2 9.6-6.6 9.8-12.1 0.3-6.2-3.6-12.2-10-15.1-5-2.3-14.4-1.2-18.7 2.2-2 1.5-1.7 2.7-1.6 3.1q0.1 0.6 0 1.3-0.1 0.6-0.5 1.1-0.3 0.5-0.8 0.9-0.6 0.4-1.2 0.5-0.6 0.1-1.2 0-0.7-0.1-1.2-0.4-0.5-0.4-0.9-0.9-0.3-0.5-0.5-1.2c-0.7-3.5 0.7-6.8 3.9-9.4 6.3-5 18.1-6.4 25.4-3 8.7 4 14.1 12.4 13.7 21.2-0.2 4-1.6 7.7-3.9 10.7z"/>
		</g>
	</g>
	<path class="s4" d="m3098.2 1297.4l-0.4-1 0.1-0.1z"/>
	<path class="s3" d="m3227.1 924c0.3 12.2-2.5 22.6-6.5 31.2q-0.6 1.2-1.2 2.3-0.6 1.2-1.2 2.3-0.7 1.1-1.4 2.2-0.6 1.1-1.4 2.2-0.2 0.4-0.5 0.8-0.3 0.5-0.6 0.9-0.3 0.4-0.6 0.8-0.3 0.4-0.6 0.8c-8.1 11-16.8 16.5-16.8 16.5-93.4 53.1-131.3-10.1-139.9-28.2l16.9-6.5q0.8 1.4 1.7 2.9c1.9 3.2 4.1 6.5 6.8 9.8 16.3 20 47.2 38.5 100.1 3.7 0 0 0.7-0.5 1.7-1.4 3.2-2.8 10-9.5 15.4-20q0.7-1.4 1.4-2.8 0.6-1.4 1.2-2.9 0.6-1.5 1.2-2.9 0.5-1.5 1-3v-0.1c2.5-8 3.8-17.6 2.8-28.5l16.8-1.8c2.4 7.8 3.5 15 3.7 21.7z"/>
	<path class="s20" d="m2941.3 2456.4c-18.7 20.7-53.3 47.4-75.4 58.2-21.1 10.4-55.5 11.1-66.1 15.7-20.3 8.9-9.4 12.8-13.8 24.8-2.5 27.2 158.8 15.8 201.9 11.8 23.2 1.2 45.5 1.2 68.1-5.1 5.9-1.7 10.8-10.2 11.9-13.9 7.7-24.4-0.5-66.1-10.2-80.8-9.6-14.8-8.1-13.8-19.4-8.3-11.3 5.6-15.3 24.4-35.4 23.4-20.1-0.9-39-10.6-52.6-26.4-3.2 0.2-5.4 0.1-9 0.6z"/>
	<path class="s21" d="m3056.7 2464.6c0-0.1 0-0.4-0.1-0.4-5.8-4.2-8.2-14.3-18.5-5.9-10.3 8.4-15.5 23.7-35.2 23.8-19.8 0-39.2-11.1-52.6-26.3q-0.9 0-1.8 0.1-0.9 0-1.8 0.1-0.9 0-1.8 0.1-1 0-1.9 0.1c17.1 27.3 39.3 39.3 72.1 38.7 20-0.4 35.9-10.7 41.6-30.3z"/>
	<path class="s20" d="m3801.8 2146c5.1 27.5 5.2 71.1 0.4 95.3-4.5 23-24.9 50.8-27.7 62-5.3 21.5 4.5 15.3 11.3 26 20.1 18.6 109-116.6 132-153.2 15.1-17.6 28.6-35.4 37.3-57.2 2.3-5.7-1.5-14.7-3.8-17.9-14.6-20.9-52.8-39.8-70.3-41-17.6-1.3-15.9-2-18.4 10.4-2.4 12.4 10.1 27-2.9 42.4-12.9 15.3-32.2 24.5-53 25.7-1.7 2.7-3.2 4.3-4.9 7.5z"/>
	<path class="s21" d="m3878.3 2059.3c0-0.1-0.2-0.2-0.3-0.2-6.9 2.1-16.3-2.2-15.9 11.1 0.4 13.3 9.4 26.8-2.5 42.5-12 15.7-32.7 24.4-52.8 25.8q-0.6 0.7-1.1 1.5-0.5 0.7-1 1.5-0.5 0.7-1 1.5-0.5 0.7-1 1.5c32 3 55-7.3 74.5-33.8 11.8-16.1 13.3-35 1.1-51.4z"/>
	<path class="s15" d="m3159.3 799.4c9.9 26.7 3.5 56.6-16 76.8q0 0-0.1 0.1-0.1 0.1-0.2 0.2 0 0-0.1 0.1-0.1 0.1-0.2 0.2-1.7 1.7-3.6 3.4-1.9 1.7-3.8 3.2-2 1.5-4.1 2.9-2.1 1.4-4.2 2.7-1.5 0.8-2.9 1.6c-0.9 0.4-1.8 0.9-2.7 1.3q-2.6 1.2-5.2 2.2-2.7 1-5.4 1.8-2.8 0.8-5.6 1.4-2.8 0.6-5.6 1-1 0.1-2.1 0.2-1 0.1-2 0.2-1.1 0.1-2.1 0.1-1 0.1-2.1 0.1c-11.4 0.2-22.6-2.3-32.9-7.1-13.1-6.2-24.5-16.4-32.3-29.9l-21-36.4-4.4-7.5q0.6 0.1 1.2 0.1 0.6-0.1 1.2-0.1 0.6 0 1.2-0.1 0.6-0.1 1.2-0.1c17.6-2.9 21.4-26 21.6-44.5 0.1-9.6 9.9-16.2 18.8-12.2 22.5 10 59.7 19.5 88.8-6.5l5.5-5.6 1-1c5.6-5.7 15.2-3.7 18.2 3.7l4.8 11.9c4.3 10.6 3.2 22.6-2.7 32.3z"/>
	<path class="s14" d="m3260.3 1131.3l-142.4 144.7-7-30.2 139.2-124.8c10.4-9.3 14.7-23.7 11-37.2l-17.9-66.7 25.5 41.9c14.1 23.1 10.6 52.9-8.4 72.3zm139.3 103.1l-279.9 155.1-21.5-92.1 23.5 63.5 258.5-151.5q0.4-0.2 0.7-0.4 0.3-0.2 0.7-0.4 0.3-0.2 0.7-0.5 0.3-0.2 0.7-0.4z"/>
	<path class="s22" d="m3069.3 1523.2l4.3-34.1 2.7-21.5c15.5-12.4 25.4-31.5 25.4-52.9v-35.4l42.9-12.4c0 0 15.5 147.6-75.3 156.3z"/>
	<path class="s22" d="m3278.9 1639.4q-0.1 0.1-0.1 0.2c-7.4 11.7-21.3 105.2-35.5 216-19.6 151.4-58.1 447.3-63.7 498.5l46.1-824.9 1.4-168.3zm432.1 469.4l-31.1 54.7-294.7-243.7zm-167.7-337.1l-18.8-4.1c-36.3-7.8-60.9-41.7-57.1-78.7l24.9-243.7q3.6 17.2 6.1 34.7 2.4 17.5 3.6 35.1 1.2 17.6 1.1 35.3 0 17.6-1.3 35.2l-7.7 107.2q-0.4 4.9 0 9.8 0.4 4.9 1.4 9.7 1.1 4.9 2.9 9.5 1.8 4.6 4.3 8.8 1.3 2.4 2.8 4.6 1.5 2.2 3.2 4.2 1.6 2.1 3.5 4.1 1.8 1.9 3.8 3.7z"/>
	<path class="s4" d="m3192.4 2266.4c-6 40.5-12.1 81.1-12.8 87.7q-0.2 1.7-0.4 3.5-0.1 1.7-0.3 3.4-0.2 1.7-0.4 3.5-0.2 1.7-0.4 3.4h-219.1l6.7-53.3 3.8-29.6zm568.3-298.8l-112.9 169.4-17.9-14.8-58.6-48.5 117.4-171 58.9 53.1z"/>
	<path class="s19" d="m3256.2 1608.4l-7.2 45.3q0 0.2-0.2 0.4-0.2 0.1-0.4 0.1-0.3-0.1-0.4-0.3-0.1-0.2-0.1-0.4zm-14.5 90.6l-7.5 45.3c-0.1 0.4-0.3 0.7-0.6 0.9-0.3 0.2-0.6 0.3-1 0.2-0.3 0-0.6-0.2-0.9-0.5-0.2-0.3-0.2-0.7-0.2-1l8.1-45.2q0.1-0.4 0.4-0.7 0.4-0.2 0.8-0.1 0.4 0 0.7 0.4 0.2 0.3 0.2 0.7zm-15 90.6l-7.5 45.3c-0.1 0.5-0.4 0.9-0.8 1.2-0.4 0.3-0.9 0.4-1.4 0.4-0.5-0.1-1-0.4-1.3-0.8-0.3-0.4-0.4-1-0.3-1.5l8.1-45.2c0-0.4 0.3-0.8 0.6-1 0.4-0.3 0.8-0.4 1.3-0.3 0.4 0.1 0.8 0.3 1 0.7 0.3 0.3 0.4 0.8 0.3 1.2zm-15.2 90.5l-7.7 45.3c-0.1 0.5-0.4 1-0.8 1.4-0.5 0.3-1.1 0.4-1.6 0.3-0.6-0.1-1.1-0.4-1.4-0.8-0.3-0.5-0.4-1.1-0.4-1.6l7.9-45.3c0.1-0.5 0.4-0.9 0.9-1.2 0.4-0.3 0.9-0.4 1.5-0.3 0.5 0 0.9 0.3 1.2 0.8 0.4 0.4 0.5 0.9 0.4 1.4zm-15.4 90.5l-7.7 45.3c-0.1 0.6-0.4 1.1-0.9 1.4-0.5 0.4-1.1 0.5-1.7 0.4-0.6-0.1-1.1-0.4-1.5-0.9-0.3-0.5-0.5-1.1-0.4-1.7l7.9-45.2c0.1-0.6 0.4-1.1 0.9-1.4 0.5-0.3 1.1-0.5 1.6-0.4 0.6 0.1 1.1 0.5 1.4 0.9 0.4 0.5 0.5 1.1 0.4 1.6zm-15.5 90.5l-7.9 45.2q-0.1 0.4-0.3 0.8-0.2 0.3-0.6 0.6-0.3 0.2-0.7 0.3-0.4 0.1-0.8 0-0.4-0.1-0.8-0.3-0.3-0.2-0.6-0.5-0.2-0.4-0.3-0.8-0.1-0.4 0-0.8l7.7-45.3c0.1-0.5 0.4-1 0.9-1.3 0.4-0.4 1-0.5 1.6-0.4 0.5 0.1 1 0.4 1.4 0.9 0.3 0.4 0.4 1 0.4 1.6zm-15.8 90.4l-7.9 45.2c-0.1 0.5-0.4 0.9-0.8 1.2-0.4 0.3-0.9 0.4-1.3 0.3-0.5-0.1-0.9-0.4-1.2-0.7-0.3-0.4-0.4-0.9-0.3-1.4l7.6-45.3c0.1-0.5 0.4-0.9 0.8-1.2 0.4-0.3 1-0.5 1.5-0.4 0.5 0.1 1 0.4 1.3 0.8 0.3 0.4 0.4 1 0.3 1.5zm-16 90.4l-8.1 45.2c0 0.3-0.2 0.6-0.5 0.8-0.2 0.2-0.6 0.2-0.9 0.2-0.3-0.1-0.6-0.3-0.8-0.5-0.2-0.3-0.3-0.6-0.2-1l7.5-45.2c0.1-0.4 0.3-0.8 0.6-1 0.3-0.3 0.8-0.3 1.1-0.3 0.4 0.1 0.8 0.3 1 0.6 0.3 0.4 0.4 0.8 0.3 1.2zm-16.3 90.3l-8.2 45.2q0 0.1-0.2 0.2-0.1 0.1-0.2 0-0.1 0-0.2-0.1-0.1-0.1-0.1-0.2l7.3-45.4q0.1-0.3 0.4-0.5 0.2-0.2 0.6-0.1 0.3 0 0.5 0.3 0.2 0.3 0.1 0.6zm277.8-1029.1c6.3 14 11.6 28.4 16 43q0 0.3-0.1 0.4-0.1 0.2-0.3 0.3-0.2 0.1-0.4 0-0.2-0.1-0.2-0.4c-4.2-14.7-9.1-29.2-15-43.3zm26.9 87.7c3 15 5.3 30.2 7.2 45.4 0.1 0.3 0 0.7-0.2 0.9-0.2 0.3-0.6 0.5-0.9 0.5-0.4 0.1-0.7 0-1-0.2-0.3-0.3-0.4-0.6-0.5-0.9-1.7-15.2-3.8-30.3-6.5-45.4q0-0.4 0.2-0.7 0.2-0.3 0.6-0.4 0.4 0 0.7 0.2 0.3 0.2 0.4 0.6zm12 91.1l2 22.8c0.6 7.7 1.1 15.3 1.7 23 0 0.4-0.1 0.9-0.4 1.3-0.4 0.4-0.8 0.6-1.3 0.6-0.5 0.1-1-0.1-1.3-0.4-0.4-0.3-0.6-0.8-0.7-1.3-0.5-7.6-0.9-15.3-1.4-22.9l-1.7-22.9c0-0.4 0.1-0.8 0.4-1.1 0.2-0.4 0.6-0.5 1-0.6 0.5 0 0.9 0.1 1.2 0.4 0.3 0.3 0.5 0.6 0.5 1.1zm6 91.6l1.9 45.9c0 0.5-0.2 1-0.6 1.4-0.4 0.4-0.9 0.7-1.4 0.7-0.6 0-1.1-0.2-1.5-0.5-0.4-0.4-0.7-0.9-0.7-1.4v-0.1l-1.6-45.8c-0.1-0.6 0.1-1.1 0.5-1.5 0.3-0.3 0.8-0.6 1.4-0.6 0.5 0 1 0.2 1.4 0.5 0.4 0.4 0.6 0.9 0.6 1.4zm0.4 92c-1.3 15.2-2.5 30.4-1.6 45.5 0 0.6-0.2 1.2-0.6 1.6-0.4 0.5-0.9 0.7-1.5 0.8-0.6 0-1.2-0.2-1.7-0.6-0.4-0.4-0.7-0.9-0.7-1.5v-0.1c-0.9-15.5 0.5-30.9 1.7-46.1 0.1-0.6 0.4-1.1 0.8-1.4 0.5-0.4 1-0.6 1.6-0.5 0.5 0 1.1 0.3 1.4 0.7 0.4 0.4 0.6 1 0.6 1.6zm9.5 88.7c6.7 13.5 16.5 25.2 27.5 35.6 0.4 0.4 0.6 0.9 0.6 1.5 0 0.5-0.2 1.1-0.6 1.5-0.3 0.4-0.9 0.6-1.4 0.6-0.6 0.1-1.1-0.1-1.6-0.5-11.2-10.6-21.4-22.7-28.5-36.6-0.6-1.2-0.1-2.5 1-3.1 1.1-0.5 2.4-0.1 3 1zm62.7 64.6l9.1 7.1 8.9 7.2 17.9 14.4c0.4 0.4 0.6 0.9 0.7 1.4 0 0.5-0.1 1-0.4 1.4-0.4 0.4-0.9 0.7-1.4 0.7-0.5 0.1-1-0.1-1.4-0.4l-17.9-14.4-8.9-7.1-9.1-7.1c-0.4-0.3-0.7-0.8-0.8-1.3 0-0.6 0.1-1.1 0.4-1.6 0.4-0.4 0.9-0.7 1.4-0.7 0.5-0.1 1.1 0 1.5 0.4zm70.8 58.5l34.4 30.4c0.3 0.3 0.5 0.7 0.5 1.1 0.1 0.4-0.1 0.8-0.3 1.1-0.3 0.3-0.7 0.5-1.1 0.5-0.4 0-0.8-0.1-1.1-0.4l-34.7-30c-0.4-0.3-0.6-0.7-0.6-1.2 0-0.5 0.1-0.9 0.4-1.3 0.3-0.3 0.8-0.6 1.2-0.6 0.5 0 1 0.1 1.3 0.4zm68.6 61.1l34.1 30.7q0.1 0.1 0.2 0.3 0 0.1 0.1 0.3 0 0.2-0.1 0.3 0 0.2-0.2 0.3-0.1 0.1-0.2 0.2-0.2 0.1-0.3 0.1-0.2 0-0.4 0-0.1-0.1-0.2-0.2l-34.7-30.1c-0.2-0.2-0.4-0.6-0.4-0.9 0-0.3 0.1-0.6 0.3-0.9 0.2-0.2 0.5-0.4 0.9-0.4 0.3 0 0.6 0.1 0.9 0.3zm68.5 61.1l25 21.5-25.6-20.9q-0.1-0.1-0.1-0.3 0-0.1 0.1-0.3 0.1-0.1 0.3-0.1 0.1 0 0.3 0.1z"/>
	<path class="s22" d="m3119.6 1248.8v132.6q-8.8 6.8-18.5 12.3-9.7 5.5-20.2 9.5-10.4 4-21.3 6.4-10.9 2.5-22 3.3l-40.5 3q-1.2 0.1-2.3-0.1-1.1-0.1-2.2-0.6-1.1-0.4-2-1-1-0.6-1.7-1.5l-16.3-17.1c-3.4-3.6-3.7-9-0.9-13l21-29.6q0.5-0.6 0.8-1.3 0.4-0.7 0.6-1.5 0.3-0.7 0.4-1.5 0.1-0.8 0.1-1.6v-3q0-1.6 0.5-3.1 0.5-1.5 1.4-2.8 0.9-1.3 2.2-2.3 1.3-0.9 2.8-1.5l62.5-21.9q0.7-0.3 1.4-0.7 0.7-0.3 1.3-0.8 0.7-0.5 1.2-1.1 0.6-0.5 1-1.2 0.5-0.6 0.9-1.3 0.3-0.8 0.5-1.5 0.3-0.8 0.4-1.6 0.1-0.7 0.1-1.5c0-2.7 1.1-5.3 3-7.2l44.3-45.5q0.2-0.2 0.4-0.4 0.1-0.2 0.3-0.3 0.2-0.2 0.4-0.3 0.2-0.2 0.4-0.3z"/>
	<path class="s4" d="m3383 1207.7q-0.4 0.2-0.7 0.4-0.4 0.3-0.7 0.5-0.4 0.2-0.7 0.4-0.3 0.2-0.7 0.4l-258.5 151.5-3-8.2-15.8-42.6-4.7-12.7-0.3-1.1 20-20.3 142.4-144.7c19-19.4 22.5-49.2 8.4-72.3l-25.5-41.9-30.1-49.6q0.3-0.4 0.6-0.8 0.3-0.4 0.6-0.8 0.3-0.4 0.6-0.9 0.3-0.4 0.5-0.8 0.8-1.1 1.4-2.2 0.7-1.1 1.4-2.2 0.6-1.1 1.2-2.3 0.6-1.1 1.2-2.3c4-8.6 6.8-19 6.5-31.2-0.2-6.7-1.3-13.9-3.7-21.7l39.2-4.1c58.1-6.1 112.5 29.6 130 85.4l33.5 107c13.9 44.4-4 92.5-43.1 117.1z"/>
	<path class="s6" d="m3549.1 2661h-807.1c-21.2 0-38.4-17.3-38.4-38.5v-99.6c0-21.3 17.2-38.5 38.4-38.5h807.1c21.2 0 38.5 17.2 38.5 38.5v99.6c0 21.2-17.3 38.5-38.5 38.5z"/>
	<path class="s15" d="m3118.6 1352.7c-0.6 0.6-1.3 1.1-2 1.7l-32.3 29.3 15.5-72.2 3.1-1.4z"/>
	<path class="s18" d="m3185.1 901.7c-31.9 14.2-71.3 11.1-92.7 7.8q0-1.3-0.2-2.7-0.1-1.3-0.2-2.6-0.1-1.4-0.3-2.7-0.2-1.3-0.4-2.6 1.1 0 2.1-0.1 1 0 2.1-0.1 1-0.1 2-0.2 1.1-0.1 2.1-0.2 2.8-0.4 5.6-1 2.8-0.6 5.6-1.4 2.7-0.8 5.4-1.8 2.6-1 5.2-2.2c0.9-0.4 1.8-0.9 2.7-1.3q1.4-0.8 2.9-1.6 2.1-1.3 4.2-2.7 2.1-1.4 4.1-2.9 1.9-1.5 3.8-3.2 1.9-1.7 3.6-3.4c12.8 15.1 29.3 21.9 42.4 24.9zm-44.9-152.7v0.2c-0.8 12.4-9.5 22.9-18.9 31.1-8.5 7.3-18.3 13.5-29.2 15.8-10.7 2.2-21.8 0.5-32.8 0.6-4.5 0.1-9.2 0.5-12.8 3-4.7 3.2-6.7 8.9-10.1 13.4-6.4 8.3-19.4 12.8-31.3 12.4l-4.4-7.5q0.6 0.1 1.2 0.1 0.6 0 1.2-0.1 0.6 0 1.2-0.1 0.6 0 1.2-0.1c17.6-2.9 21.4-26 21.6-44.5 0.1-9.6 9.9-16.1 18.8-12.2 22.5 10 59.7 19.5 88.8-6.5z"/>
	<path class="s23" d="m3001.8 674.4c-0.8 1.3-1.6 2.7-1.4 4.1v0.2c0.2 0.6 0.6 1.1 1.1 1.4l-3.7 0.2-12.4 0.6c6.3-5.6 13.3-10 20.8-13.3q-0.5 0.8-1.1 1.7-0.5 0.8-1.1 1.7-0.5 0.8-1.1 1.7-0.5 0.8-1.1 1.7z"/>
	<path class="s23" d="m3001.5 680.1l2.4-0.1c-0.6 0.8-1.7 0.7-2.4 0.1zm232.6 57.2c-16.6-15.4-34.2-29.6-53.6-41.4-30.3-18.5-64.5-30.7-99.8-35.7-10.9-1.5-22.2-2.2-33.4-1.7 35.9-7.6 79.3-1.7 128.3 24.8 22 11.9 41.1 31.4 58.5 54z"/>
	<path class="s17" d="m3093 1492.6h-1470.9c-14.7 0-26.7-11.9-26.7-26.7v-357.3c0-14.7 12-26.6 26.7-26.6h1470.9c14.7 0 26.6 11.9 26.6 26.6v357.3c0 14.8-11.9 26.7-26.6 26.7z"/>
	<g id="Clip-Path" clip-path="url(#cp4)">
		<g>
			<path class="s1" d="m1856.9 876.5l28.3 18.7-399.9 604.5-28.3-18.7z"/>
			<path class="s1" d="m1981.2 940.1l28.3 18.8-399.9 604.5-28.4-18.7z"/>
			<path class="s1" d="m2149.7 976.6l28.3 18.8-399.9 604.5-28.3-18.7z"/>
			<path class="s1" d="m2309.3 984.3l28.3 18.8-399.9 604.5-28.4-18.7z"/>
			<path class="s1" d="m2493.2 999.1l28.3 18.8-399.9 604.5-28.3-18.7z"/>
			<path class="s1" d="m2652.9 998.4l28.3 18.8-399.9 604.5-28.3-18.7z"/>
			<path class="s1" d="m2825.1 999.1l28.3 18.8-400 604.5-28.3-18.7z"/>
			<path class="s1" d="m2962 1011.2l28.3 18.7-399.9 604.6-28.3-18.8z"/>
			<path class="s1" d="m3159.5 1011.2l28.3 18.7-399.9 604.6-28.4-18.8z"/>
		</g>
	</g>
	<path class="s22" d="m3142.5 1404.5l-298.8 59.1v-341.6c0-36.5 29.6-66.1 66.2-66.1h179.6c29.2 0 53 23.7 53 53z"/>
	<path class="s16" d="m1873.9 1040.4h-238.1c-42.5 0-76.7 35-75.7 77.5l10.3 340.6c0.4 14.8 14 25.8 28.6 23.2l102.9-18.4 183.6-370.3z"/>
	<path class="s1" d="m3074.6 1187.7v208c0 37.5-30.5 67.9-68 67.9h-1298.1c-37.6 0-68-30.4-68-67.9v-208c0-37.6 30.4-68 68-68h1298.1c37.5 0 68 30.4 68 68z"/>
	<path class="s1" d="m3074.6 1187.7v208c0 37.5-30.5 67.9-68 67.9h-1298.1c-37.6 0-68-30.4-68-67.9v-208c0-37.6 30.4-68 68-68h1298.1c37.5 0 68 30.4 68 68z"/>
	<path class="s22" d="m1907.9 1492.6h-82.8q0.7-1.6 1.9-3c5.5-6.4 9.3-13.9 10.5-22.9l1.9-14.2c1.3-10.3 10.8-18.6 21.1-18.5 13.8 0.2 26.3 8.4 31.9 21.1 4.2 9.5 8.4 18.9 12.5 28.5 1.4 3.1 2.4 6.1 3 9z"/>
	<path class="s15" d="m1909.1 1520.4c-0.2 7.9-7.4 13.9-15.3 12.7l-19.2-3q-2.3-0.4-4.6-0.9-2.3-0.4-4.6-1-2.3-0.6-4.5-1.2-2.2-0.7-4.4-1.5c-5.9-2-11.6-4.6-17-7.7-6-3.4-7.5-11.4-3-16.6 4.9-5.7 8.2-12.3 9.3-20.3l1.6-12.6c1.2-9 9.6-16.4 18.7-16.3 3 0 6 0.5 8.8 1.4 2.9 0.9 5.6 2.1 8.1 3.8 2.4 1.6 4.7 3.6 6.6 5.9 1.9 2.3 3.5 4.8 4.7 7.5 3.8 8.4 7.5 16.8 11.1 25.2 3.7 8.5 4 15.4 3.7 24.6zm917.8-8.2q-2.2 1.3-4.5 2.5-2.3 1.1-4.6 2.2-2.4 1.1-4.7 2-2.4 1-4.8 1.8-2.5 0.9-4.9 1.6-2.5 0.7-5 1.4-2.5 0.6-5 1.1-2.5 0.5-5 0.9l-21.1 3.3c-8.7 1.3-16.6-5.2-16.9-13.9-0.3-8.5-0.1-15.1 2.3-22.5q0.2-0.6 0.4-1.1 0.2-0.6 0.4-1.2 0.3-0.5 0.5-1.1 0.2-0.5 0.5-1.1c4-9.2 8.1-18.5 12.1-27.7 5.5-12.3 17.6-20.3 31-20.5 10-0.1 19.3 8.1 20.6 18l1.8 13.8c1.1 8.2 4.3 15 9.1 20.9 0.4 0.5 0.8 0.9 1.1 1.4 4.9 5.7 3.2 14.5-3.3 18.2z"/>
	<path class="s22" d="m2847.5 1492.6h-18.4c-4.8-5.9-8-12.7-9.1-20.9l-1.8-13.8c-1.3-9.9-10.6-18.1-20.6-18-13.4 0.2-25.5 8.2-31 20.5-4 9.2-8.1 18.5-12.1 27.7q-0.3 0.6-0.5 1.1-0.2 0.6-0.5 1.1-0.2 0.6-0.4 1.2-0.2 0.5-0.4 1.1h-2.4q0.3-1.1 0.7-2.2 0.3-1.1 0.7-2.2 0.4-1 0.8-2.1 0.4-1.1 0.9-2.1c4.9-11.4 9.9-22.7 14.9-34 1.7-3.7 3.8-7.1 6.4-10.2 2.6-3.1 5.6-5.8 9-8 3.4-2.2 7-3.9 10.9-5.1 3.8-1.2 7.8-1.8 11.8-1.9 12.3-0.1 23.7 9.9 25.3 22l2.2 17c1.4 10.8 5.9 19.7 12.5 27.4q0.6 0.7 1.1 1.4z"/>
	<path id=" !" class="s17" aria-label=" !"  d="m1753.5 1287.1v4.4q0 14.7-5.3 25.8-5.2 11.1-15.1 17.1-9.9 6.1-22.6 6.1-12.6 0-22.5-5.9-9.9-5.9-15.3-16.9-5.5-11.1-5.5-25.5v-4.9q0-14.7 5.3-25.8 5.5-11.2 15.3-17.2 9.9-6 22.6-6.1 12.6 0 22.5 6 9.8 5.9 15.2 17.1 5.4 11.2 5.4 25.8zm-21.1 4.8v-4.8q0-15.7-5.7-23.8-5.8-8.1-16.3-8.1-10.6 0-16.3 8.1-5.7 8-5.7 23.5v4.9q0 15.2 5.7 23.6 5.7 8.4 16.4 8.4 10.5 0 16.2-8.1 5.6-8.2 5.7-23.7zm96.3-52.5l21-0.1v99.6h-21v-37.7q-9.5 2-19.9 2-19.3 0-29.3-8.2-10-8.3-10.3-23.9v-31.6l21-0.1v31.2q0 8.6 4.2 12.3 4.1 3.8 14.4 3.8 10.4-0.1 19.9-2.1zm104.7 99.4l-7-20.5h-36.6l-7 20.6h-22.2l37.7-99.6h19.4l38 99.4zm-25.5-74.3l-12.6 37.3 25.4-0.1zm116.3 74.2l-26.1-40.6h-12.1v40.7h-20.9v-99.5l20.9-0.1v39.9h9.6l24.8-39.9 25.5-0.1-31.3 47.2 34.5 52.3zm72.4-0.1l-39.4 0.1v-99.6h35.5q18.5-0.1 28 6.9 9.5 6.9 9.5 20.3 0 7.3-3.8 12.9-3.8 5.6-10.6 8.2 7.8 1.9 12.2 7.7 4.5 5.8 4.5 14.2 0 14.3-9.3 21.7-9.3 7.4-26.6 7.6zm0.6-43.3h-19.1v26.9l17.9-0.1q7.4 0 11.5-3.4 4.1-3.5 4.1-9.6 0-13.7-14.4-13.8zm-19.1-39.6v25.1h15.4q15.8-0.3 15.8-12.4 0-6.8-4-9.7-4-3-12.6-3zm134.4 82.7l-7-20.5h-36.6l-7 20.6h-22.2l37.7-99.6h19.4l37.9 99.4zm-25.4-74.3l-12.6 37.3 25.4-0.1zm77.3 41l40.6-66.4h20.9v99.5l-20.9 0.1v-66.1l-40.6 66.1-20.9 0.1v-99.5l20.9-0.1zm30.2-92.5h14.4q0 9.1-6.7 14.7-6.6 5.6-17.4 5.7-10.8 0-17.5-5.5-6.6-5.6-6.6-14.8h14.3q0 4.3 2.6 6.7 2.6 2.3 7.2 2.3 4.5 0 7.1-2.4 2.6-2.4 2.6-6.7zm125.8 26v16.6l-31.1 0.1v82.9h-20.9v-82.9h-30.6v-16.6zm72.9 40.2v16.1l-40.1 0.1v26.6l47.1-0.1v16.5l-68 0.1v-99.5l67.8-0.1v16.6l-46.9 0.1v23.7zm113.4 25.8h20.9q-1.1 16.1-12.1 25.3-10.8 9.3-28.7 9.3-19.5 0-30.7-12.8-11.1-12.9-11.1-35.4v-6.1q0-14.3 5.1-25.3 5.2-10.9 14.7-16.7 9.6-5.9 22.3-6 17.6 0 28.3 9.2 10.7 9.2 12.4 25.9h-20.9q-0.8-9.6-5.5-13.9-4.7-4.4-14.3-4.4-10.4 0.1-15.7 7.5-5.1 7.3-5.3 22.7v7.6q0 16.1 5 23.5 5 7.5 15.7 7.4 9.7 0 14.4-4.3 4.8-4.4 5.5-13.5zm93.9 33l-26.2-40.6h-12v40.7h-20.9v-99.5h20.9v39.8h9.5l24.8-39.9 25.5-0.1-31.2 47.2 34.5 52.4zm114.1-52.2v4.4q0 14.7-5.3 25.8-5.3 11.1-15.2 17.1-9.8 6.1-22.6 6.1-12.6 0-22.5-5.9-9.8-5.9-15.3-16.9-5.4-11.1-5.5-25.4v-5q0-14.7 5.4-25.8 5.4-11.2 15.2-17.2 9.9-6 22.6-6.1 12.7 0 22.5 6 9.9 5.9 15.2 17.1 5.5 11.2 5.5 25.8zm-21.2 4.8v-4.8q0-15.7-5.7-23.8-5.7-8.1-16.3-8.1-10.5 0-16.2 8.1-5.7 8-5.8 23.5v4.9q0 15.2 5.7 23.6 5.7 8.4 16.4 8.4 10.6 0 16.2-8.1 5.6-8.2 5.7-23.7zm75.6 12h-18.3v35.1h-20.9v-99.5l39.5-0.1q11.4 0 20.1 4.1 8.7 4.1 13.4 11.6 4.6 7.6 4.6 17.2 0 14.6-10.2 23.1-10.2 8.5-28.2 8.5zm-18.3-47.8v31.2h18.6q8.3 0 12.6-3.9 4.4-3.8 4.4-10.9 0-7.3-4.4-11.8-4.4-4.5-12.1-4.7zm154.4 30.7v4.5q0 14.6-5.3 25.7-5.3 11.1-15.2 17.2-9.8 6-22.5 6-12.6 0-22.5-5.9-9.9-5.9-15.3-16.9-5.5-11.1-5.5-25.4v-5q0-14.7 5.3-25.8 5.5-11.2 15.3-17.2 9.9-6 22.5-6.1 12.7 0 22.5 6 9.9 5.9 15.3 17.1 5.4 11.2 5.4 25.8zm-21.1 4.8v-4.8q0-15.7-5.8-23.8-5.7-8.1-16.3-8.1-10.5 0-16.2 8.1-5.7 8-5.8 23.5v4.9q0 15.2 5.7 23.6 5.8 8.4 16.5 8.4 10.5 0 16.1-8.1 5.7-8.2 5.8-23.7zm57.8-52.4l-2.3 68.9-16.8 0.1-2.3-69zm-10.7 79.8q5 0 8.1 2.9 3.1 3 3.1 7.5 0 4.5-3.1 7.5-3.1 2.9-8.1 2.9-5.1 0.1-8.2-2.9-3.1-2.9-3.1-7.4 0-4.5 3.1-7.5 3.1-3 8.2-3z"/>
	<path class="s15" d="m1670.6 1372.8c-3.8 2.9-8.3 4.4-13.1 4.4-6.4 0-12.5-2.9-16.5-7.8l-22.8-28.7c-5.9-7.4-13.8-12.8-22.8-15.7q-1.9-0.6-3.9-1l-20.2-4.6c3.7-3.3 5.9-7.9 6.2-12.9l2.8-43.2 40.1 9.8c15.2 3.7 27.8 14.2 34.3 28.4l14.7 32.3 7.1 15.6c3.7 8.2 1.3 17.9-5.9 23.4zm1448-20.1c-0.6 0.6-1.3 1.1-2 1.7l-32.3 29.3-2.1 2c-4.3 3.9-9.6 6.6-15.3 7.9l-60.3 13.7q-3.4 0.8-6.8 0.8c-9 0-17.6-4-23.5-11.1-5.1-6.2-2.8-15.6 4.6-18.7l58.6-24.1c1.1-0.4 0.9-2-0.2-2.2l-21-4.2c-2.1-0.5-4.1-1.4-5.7-2.9-1.6-1.4-2.8-3.2-3.5-5.4-0.9-3 1.2-6.1 4.3-6.3l39.8-3.4c6.9-0.6 13.7-2.4 20-5.5l26.6-12.8 3.1-1.4z"/>
</svg>